<svg xmlns="http://www.w3.org/2000/svg" xmlns:svg="http://www.w3.org/2000/svg" version="1.1" id="Layer_1" x="0px" y="0px" viewBox="0 0 38.080714 37.558399" xml:space="preserve" width="125.10521" height="123.38927"><defs id="defs103"/>
<style type="text/css" id="style82">
	.st0{fill:#FFFFFF;}
	.st1{fill:#E6BD37;}
	.st2{fill:#FFFFFF;}
</style>
<path class="st1" d="M 36.586024,11.470581 C 35.140153,8.0982961 32.727318,5.2344113 29.689159,3.2098373 28.170079,2.1990544 26.492381,1.395843 24.70487,0.84532734 22.914308,0.29481167 21.010883,0 19.043401,0 16.420091,0 13.909644,0.52644941 11.631025,1.4770666 11.313787,1.6094311 11.00265,1.7508203 10.694564,1.8982262 10.041787,2.2140958 9.4103621,2.5630566 8.80029,2.9481167 c 0,0 -0.00305,0 -0.00305,0.00301 C 8.647772,3.0443817 8.5593116,3.206829 8.5593116,3.3813093 v 0.4181513 c 0,1.0920065 0.5490648,2.1027894 1.4519714,2.7134707 0.0092,-0.00602 0.0183,-0.012033 0.02745,-0.01805 l 0.0061,0.039108 c 0.07016,0.045124 0.140317,0.090249 0.213525,0.1323645 l 7.281211,4.0341062 0.0061,-0.003 v 0.006 l 7.159196,3.964916 c 0.289784,0.162447 0.469755,0.463275 0.469755,0.791178 v 3.306102 c 0,0.33392 -0.186072,0.643773 -0.488057,0.800203 l -3.840404,1.97945 c -0.225727,0.120331 -0.369094,0.351969 -0.369094,0.607673 v 4.668854 l 0.01525,0.009 7.802822,-4.359001 c 0.76259,-0.436201 1.229295,-1.236404 1.229295,-2.105798 v -6.527972 c 0,-0.87541 -0.475856,-1.68163 -1.247597,-2.114823 L 14.815601,4.2055787 c 1.342159,-0.3760353 2.757526,-0.5805985 4.2278,-0.5805985 2.126101,0 4.14544,0.4241678 5.981757,1.1912798 2.754475,1.1491639 5.106303,3.0744646 6.762649,5.493124 0.829698,1.209329 1.485525,2.541998 1.933928,3.964916 0.448403,1.422917 0.689382,2.933075 0.689382,4.509415 0,2.096773 -0.430101,4.088256 -1.207943,5.899242 -0.823597,1.919284 -2.037641,3.637013 -3.544519,5.056922 0.991367,0.830286 1.638044,1.988475 1.827166,3.251953 1.272,-1.082981 2.397583,-2.331418 3.340145,-3.709212 1.024921,-1.498124 1.839367,-3.15268 2.397583,-4.915533 0.558216,-1.765862 0.857151,-3.64303 0.857151,-5.583372 0.0031,-2.590131 -0.530762,-5.065948 -1.494676,-7.313134 z" id="path94" style="stroke-width:0.302925"/><path class="st1" d="m 28.075518,31.048482 c 0,0 -0.09151,-0.05716 -0.09151,-0.06017 -0.05186,-0.03309 -0.100662,-0.06317 -0.155568,-0.09326 l -7.336117,-4.06419 -0.01525,-0.009 -7.098189,-3.931825 C 13.089097,22.727573 12.909126,22.426745 12.909126,22.098842 V 18.79274 c 0,-0.33392 0.186072,-0.643773 0.485007,-0.800203 l 3.779397,-2.003516 c 0.225726,-0.120332 0.369093,-0.351969 0.369093,-0.607673 v -4.677879 -0.006 l -0.0061,0.003 -7.7509665,4.389084 c -0.7625901,0.436201 -1.2292953,1.236404 -1.2292953,2.105798 v 6.527973 c 0,0.87541 0.4758562,1.681629 1.2475974,2.114822 L 23.2651,33.355835 c -1.342159,0.376035 -2.757526,0.580598 -4.2278,0.580598 -2.126101,0 -4.14544,-0.424168 -5.981757,-1.19128 C 10.301067,31.595989 7.9492395,29.670689 6.2928937,27.25203 5.4631957,26.0427 4.8073681,24.710031 4.3589652,23.287114 3.9105622,21.864196 3.6695837,20.35103 3.6695837,18.777698 c 0,-2.096772 0.4301008,-4.088255 1.2079427,-5.899241 C 5.7011238,10.959173 6.9151672,9.2414433 8.4220453,7.8215341 7.4306782,6.9912482 6.7840017,5.8330595 6.5948794,4.5695809 5.3228791,5.6525625 4.197296,6.9009997 3.2547347,8.278793 2.2298135,9.7769176 1.4153673,11.431473 0.8571513,13.194326 0.29893533,14.960188 0,16.837356 0,18.777698 c 0,2.587123 0.53381309,5.06294 1.497727,7.310126 1.4458709,3.372285 3.858706,6.23617 6.8968651,8.260744 1.5190795,1.010783 3.1967779,1.813994 4.9842889,2.36451 1.790562,0.550515 3.693987,0.845327 5.661469,0.845327 2.62331,0 5.133757,-0.526449 7.412376,-1.477067 0.317238,-0.132364 0.628375,-0.273753 0.936461,-0.421159 0.707684,-0.339936 1.387914,-0.721988 2.043741,-1.143147 0.05491,-0.0361 0.09151,-0.09927 0.09151,-0.165456 v 0 -0.589623 c 0.0031,-1.092007 -0.546014,-2.105798 -1.44892,-2.713471 z" id="path96" style="stroke-width:0.302925"/>
</svg>