<?xml version="1.0" encoding="UTF-8" standalone="no"?>
<!-- Generator: Adobe Illustrator 25.0.0, SVG Export Plug-In . SVG Version: 6.00 Build 0)  -->

<svg
   version="1.1"
   id="Layer_1"
   x="0px"
   y="0px"
   viewBox="0 0 160 45"
   xml:space="preserve"
   sodipodi:docname="Logo-01.svg"
   width="160"
   height="45"
   xmlns="http://www.w3.org/2000/svg"
   xmlns:svg="http://www.w3.org/2000/svg"><defs
   id="namedview709"
   pagecolor="#505050"
   bordercolor="#eeeeee"
   borderopacity="1"
   inkscape:showpageshadow="0"
   inkscape:pageopacity="0"
   inkscape:pagecheckerboard="0"
   inkscape:deskcolor="#505050"
   showgrid="false"
   showborder="true" />
<style
   type="text/css"
   id="style690">
	.st0{fill:#121620;}
	.st1{fill:#E6BD37;}
	.st2{fill:#FFFFFF;}
</style>
<g
   id="g706"
   transform="matrix(0.35896584,0,0,0.35789929,-63.615926,-102.9211)">
	<g
   id="g700">
		<path
   class="st0"
   d="m 387.9,323.69 c 4.25,0 6.37,2.05 6.37,6.13 v 7.35 c 0,0.97 -0.07,1.79 -0.2,2.46 -0.14,0.67 -0.35,1.26 -0.65,1.78 -0.3,0.51 -0.7,0.96 -1.21,1.33 -0.51,0.38 -1.17,0.78 -1.98,1.21 l -42.7,22.52 c -0.49,0.27 -0.73,0.67 -0.73,1.21 v 0.57 c 0,0.48 0.27,0.72 0.81,0.72 h 44.31 c 1.24,0 1.86,0.59 1.86,1.78 v 7.67 c 0,1.18 -0.62,1.78 -1.86,1.78 H 339.7 c -2.26,0 -3.89,-0.5 -4.88,-1.49 -1,-1 -1.49,-2.52 -1.49,-4.56 v -7.34 c 0,-0.97 0.05,-1.79 0.16,-2.46 0.11,-0.67 0.29,-1.26 0.56,-1.78 0.27,-0.52 0.65,-0.95 1.13,-1.33 0.48,-0.38 1.13,-0.78 1.94,-1.21 l 42.54,-22.6 c 0.48,-0.27 0.72,-0.67 0.72,-1.21 v -0.57 c 0,-0.49 -0.27,-0.72 -0.8,-0.72 h -43.91 c -1.24,0 -1.85,-0.59 -1.85,-1.78 v -7.67 c 0,-1.18 0.62,-1.78 1.85,-1.78 h 52.23 z"
   id="path692" />
		<path
   class="st0"
   d="m 449.08,323.69 c 4.09,0 7.57,0.39 10.45,1.17 2.88,0.78 5.21,2.02 7.02,3.71 1.8,1.69 3.11,3.89 3.91,6.58 0.81,2.69 1.21,5.97 1.21,9.85 v 13.88 c 0,3.88 -0.4,7.17 -1.21,9.89 -0.8,2.72 -2.11,4.93 -3.91,6.62 -1.81,1.69 -4.14,2.92 -7.02,3.67 -2.88,0.75 -6.37,1.13 -10.45,1.13 h -24.94 c -4.09,0 -7.56,-0.38 -10.42,-1.13 -2.85,-0.76 -5.18,-1.98 -6.98,-3.67 -1.8,-1.69 -3.12,-3.9 -3.95,-6.62 -0.84,-2.72 -1.25,-6.01 -1.25,-9.89 V 345 c 0,-3.87 0.42,-7.16 1.25,-9.85 0.83,-2.69 2.15,-4.88 3.95,-6.58 1.8,-1.69 4.13,-2.93 6.98,-3.71 2.85,-0.78 6.32,-1.17 10.42,-1.17 z m -35.2,34.3 c 0,2.09 0.18,3.86 0.53,5.29 0.35,1.43 0.93,2.55 1.74,3.39 0.81,0.83 1.9,1.43 3.27,1.78 1.37,0.35 3.11,0.52 5.21,0.52 h 23.97 c 2.1,0 3.83,-0.17 5.21,-0.52 1.37,-0.35 2.46,-0.94 3.27,-1.78 0.81,-0.84 1.38,-1.96 1.74,-3.39 0.36,-1.43 0.53,-3.19 0.53,-5.29 v -12.11 c 0,-2.09 -0.18,-3.86 -0.53,-5.29 -0.35,-1.43 -0.93,-2.55 -1.74,-3.39 -0.81,-0.83 -1.9,-1.43 -3.27,-1.78 -1.37,-0.35 -3.11,-0.52 -5.21,-0.52 h -23.97 c -2.09,0 -3.83,0.18 -5.21,0.52 -1.37,0.35 -2.46,0.94 -3.27,1.78 -0.8,0.84 -1.38,1.96 -1.74,3.39 -0.35,1.43 -0.53,3.19 -0.53,5.29 z"
   id="path694" />
		<path
   class="st0"
   d="m 527.44,323.69 c 6.19,0 10.63,1.4 13.32,4.2 2.69,2.8 4.03,6.94 4.03,12.43 v 4.6 c 0,4.63 -0.94,8.28 -2.82,10.98 -1.88,2.69 -4.95,4.41 -9.2,5.17 l 13.8,17.11 c 0.27,0.27 0.35,0.67 0.24,1.21 -0.11,0.54 -0.54,0.81 -1.29,0.81 h -10.41 c -0.7,0 -1.19,-0.08 -1.45,-0.24 -0.27,-0.16 -0.54,-0.43 -0.81,-0.8 L 520.1,362.37 h -26.07 v 16.06 c 0,1.18 -0.59,1.78 -1.78,1.78 h -8.72 c -1.24,0 -1.86,-0.59 -1.86,-1.78 v -52.3 c 0,-1.62 0.81,-2.42 2.42,-2.42 h 43.35 z m -33.41,28.81 h 30.91 c 2.74,0 4.68,-0.59 5.81,-1.78 1.13,-1.19 1.69,-2.99 1.69,-5.41 v -3.39 c 0,-2.42 -0.56,-4.23 -1.69,-5.41 -1.13,-1.18 -3.07,-1.78 -5.81,-1.78 h -29.87 c -0.7,0 -1.05,0.32 -1.05,0.97 v 16.8 z"
   id="path696" />
		<path
   class="st0"
   d="m 600.17,323.69 c 4.09,0 7.57,0.39 10.45,1.17 2.88,0.78 5.21,2.02 7.02,3.71 1.8,1.69 3.11,3.89 3.91,6.58 0.81,2.69 1.21,5.97 1.21,9.85 v 13.88 c 0,3.88 -0.4,7.17 -1.21,9.89 -0.8,2.72 -2.11,4.93 -3.91,6.62 -1.81,1.69 -4.14,2.92 -7.02,3.67 -2.88,0.75 -6.37,1.13 -10.45,1.13 h -24.94 c -4.09,0 -7.56,-0.38 -10.42,-1.13 -2.85,-0.76 -5.18,-1.98 -6.98,-3.67 -1.8,-1.69 -3.12,-3.9 -3.95,-6.62 -0.84,-2.72 -1.25,-6.01 -1.25,-9.89 V 345 c 0,-3.87 0.42,-7.16 1.25,-9.85 0.83,-2.69 2.15,-4.88 3.95,-6.58 1.8,-1.69 4.13,-2.93 6.98,-3.71 2.85,-0.78 6.32,-1.17 10.42,-1.17 z m -35.19,34.3 c 0,2.09 0.18,3.86 0.53,5.29 0.35,1.43 0.93,2.55 1.74,3.39 0.81,0.83 1.9,1.43 3.27,1.78 1.37,0.35 3.11,0.52 5.21,0.52 h 23.97 c 2.1,0 3.83,-0.17 5.21,-0.52 1.37,-0.35 2.46,-0.94 3.27,-1.78 0.81,-0.84 1.38,-1.96 1.74,-3.39 0.36,-1.43 0.53,-3.19 0.53,-5.29 v -12.11 c 0,-2.09 -0.18,-3.86 -0.53,-5.29 -0.35,-1.43 -0.93,-2.55 -1.74,-3.39 -0.81,-0.83 -1.9,-1.43 -3.27,-1.78 -1.37,-0.35 -3.11,-0.52 -5.21,-0.52 h -23.97 c -2.09,0 -3.83,0.18 -5.21,0.52 -1.37,0.35 -2.46,0.94 -3.27,1.78 -0.8,0.84 -1.38,1.96 -1.74,3.39 -0.35,1.43 -0.53,3.19 -0.53,5.29 z"
   id="path698" />
	</g>
	<path
   class="st1"
   d="m 297.16,325.7 c -4.74,-11.21 -12.65,-20.73 -22.61,-27.46 -4.98,-3.36 -10.48,-6.03 -16.34,-7.86 -5.87,-1.83 -12.11,-2.81 -18.56,-2.81 -8.6,0 -16.83,1.75 -24.3,4.91 -1.04,0.44 -2.06,0.91 -3.07,1.4 -2.14,1.05 -4.21,2.21 -6.21,3.49 0,0 -0.01,0 -0.01,0.01 -0.49,0.31 -0.78,0.85 -0.78,1.43 v 1.39 c 0,3.63 1.8,6.99 4.76,9.02 0.03,-0.02 0.06,-0.04 0.09,-0.06 l 0.02,0.13 c 0.23,0.15 0.46,0.3 0.7,0.44 l 23.87,13.41 0.02,-0.01 v 0.02 l 23.47,13.18 c 0.95,0.54 1.54,1.54 1.54,2.63 v 10.99 c 0,1.11 -0.61,2.14 -1.6,2.66 l -12.59,6.58 c -0.74,0.4 -1.21,1.17 -1.21,2.02 v 15.52 l 0.05,0.03 25.58,-14.49 c 2.5,-1.45 4.03,-4.11 4.03,-7 v -21.7 c 0,-2.91 -1.56,-5.59 -4.09,-7.03 l -44.13,-24.99 c 4.4,-1.25 9.04,-1.93 13.86,-1.93 6.97,0 13.59,1.41 19.61,3.96 9.03,3.82 16.74,10.22 22.17,18.26 2.72,4.02 4.87,8.45 6.34,13.18 1.47,4.73 2.26,9.75 2.26,14.99 0,6.97 -1.41,13.59 -3.96,19.61 -2.7,6.38 -6.68,12.09 -11.62,16.81 3.25,2.76 5.37,6.61 5.99,10.81 4.17,-3.6 7.86,-7.75 10.95,-12.33 3.36,-4.98 6.03,-10.48 7.86,-16.34 1.83,-5.87 2.81,-12.11 2.81,-18.56 0.01,-8.61 -1.74,-16.84 -4.9,-24.31 z"
   id="path702" />
	<path
   class="st1"
   d="m 269.26,390.78 c 0,0 -0.3,-0.19 -0.3,-0.2 -0.17,-0.11 -0.33,-0.21 -0.51,-0.31 l -24.05,-13.51 -0.05,-0.03 -23.27,-13.07 c -0.95,-0.54 -1.54,-1.54 -1.54,-2.63 v -10.99 c 0,-1.11 0.61,-2.14 1.59,-2.66 l 12.39,-6.66 c 0.74,-0.4 1.21,-1.17 1.21,-2.02 v -15.55 -0.02 l -0.02,0.01 -25.41,14.59 c -2.5,1.45 -4.03,4.11 -4.03,7 v 21.7 c 0,2.91 1.56,5.59 4.09,7.03 l 44.13,24.99 c -4.4,1.25 -9.04,1.93 -13.86,1.93 -6.97,0 -13.59,-1.41 -19.61,-3.96 -9.03,-3.82 -16.74,-10.22 -22.17,-18.26 -2.72,-4.02 -4.87,-8.45 -6.34,-13.18 -1.47,-4.73 -2.26,-9.76 -2.26,-14.99 0,-6.97 1.41,-13.59 3.96,-19.61 2.7,-6.38 6.68,-12.09 11.62,-16.81 -3.25,-2.76 -5.37,-6.61 -5.99,-10.81 -4.17,3.6 -7.86,7.75 -10.95,12.33 -3.36,4.98 -6.03,10.48 -7.86,16.34 -1.83,5.87 -2.81,12.11 -2.81,18.56 0,8.6 1.75,16.83 4.91,24.3 4.74,11.21 12.65,20.73 22.61,27.46 4.98,3.36 10.48,6.03 16.34,7.86 5.87,1.83 12.11,2.81 18.56,2.81 8.6,0 16.83,-1.75 24.3,-4.91 1.04,-0.44 2.06,-0.91 3.07,-1.4 2.32,-1.13 4.55,-2.4 6.7,-3.8 0.18,-0.12 0.3,-0.33 0.3,-0.55 v 0 -1.96 c 0.01,-3.63 -1.79,-7 -4.75,-9.02 z"
   id="path704" />
</g>
</svg>
