<?xml version="1.0" encoding="utf-8"?>
<!-- Generator: Adobe Illustrator 16.0.0, SVG Export Plug-In . SVG Version: 6.00 Build 0)  -->
<!DOCTYPE svg PUBLIC "-//W3C//DTD SVG 1.1//EN" "http://www.w3.org/Graphics/SVG/1.1/DTD/svg11.dtd">
<svg version="1.1" id="Layer_1" xmlns="http://www.w3.org/2000/svg" xmlns:xlink="http://www.w3.org/1999/xlink" x="0px" y="0px"
	 width="500px" height="500px" viewBox="0 0 500 500" enable-background="new 0 0 500 500" xml:space="preserve">
<g>
	<path fill="#C6C5C4" d="M213.162,97.083c2.459-33.606,28.688-67.213,63.934-63.934c-4.918,4.918-13.935,6.557-17.213,11.475
		c33.605-1.639,72.131,0,103.278,15.574c-13.936,0.82-28.688-0.819-42.623,0c13.115,6.558,27.05,8.197,40.164,16.394
		c9.836,6.558,25.41,14.754,31.968,24.59c-13.935-1.64-28.688-9.017-42.623-11.476c4.1,5.738,10.655,9.017,14.754,14.754
		c6.559,7.377,12.295,14.754,20.492,20.492c-15.574-2.459-32.787-3.279-46.722-9.836c3.277,9.836,18.032,17.213,26.229,23.77
		c9.836,8.197,18.854,14.754,31.967,14.754c-15.572-0.82-28.688,0.82-44.262-3.279c9.836,13.115,31.967,31.967,31.967,49.18
		c-19.672-10.656-36.885-29.508-53.277-44.262c-14.754,13.115,26.229,52.459,38.523,54.918c-11.476,0-24.59-3.278-35.246-6.557
		c-9.017-3.279-15.572-9.836-24.59-14.754c-4.099,22.131,33.606,30.328,46.722,37.705c-14.755,9.836-39.345-0.82-52.459-8.197
		c-0.819,18.033,18.032,25.41,30.327,33.607c-11.476,4.918-37.704-4.918-47.54-13.116c1.64,8.197,10.655,10.656,16.394,15.575
		c-18.853,1.64-37.705-17.213-41.804-34.427"/>
	<g>
		<path d="M215.662,97.083c2.625-31.736,26.945-64.167,61.434-61.434c-0.589-1.422-1.179-2.845-1.768-4.268
			c-5.348,4.891-13.072,6.077-17.604,11.981c-1.16,1.511,0.412,3.844,2.157,3.762c34.347-1.618,70.594-0.199,102.018,15.232
			c0.421-1.553,0.841-3.106,1.262-4.659c-14.207,0.728-28.415-0.729-42.623,0c-2.302,0.118-3.647,3.503-1.262,4.659
			c13.075,6.333,27.646,8.833,40.164,16.394c10.7,6.464,23.742,13.271,31.07,23.693c0.72-1.254,1.438-2.508,2.158-3.762
			c-14.438-1.926-27.688-8.679-41.958-11.386c-1.875-0.356-4.303,1.741-2.823,3.672c4.706,6.146,11.162,10.751,16.294,16.562
			c6.212,7.035,12.199,14.043,19.85,19.581c0.642-1.523,1.284-3.046,1.927-4.569c-15.454-2.376-31.683-3.051-46.125-9.584
			c-1.761-0.797-4.539,0.537-3.673,2.823c4.248,11.204,16.297,17.138,25.457,23.793c11.221,8.152,20.52,16.261,35.149,16.567
			c3.236,0.067,3.204-4.85,0-5c-14.641-0.687-29.237,0.404-43.597-3.189c-1.916-0.479-4.243,1.813-2.823,3.672
			c5.661,7.417,12.22,14.093,18.19,21.253c6.226,7.464,13.143,16.536,13.435,26.665c1.254-0.72,2.509-1.439,3.763-2.159
			c-20.191-11.174-35.836-28.547-52.772-43.871c-1.029-0.932-2.511-0.974-3.535,0c-10.073,9.579,1.319,25.278,7.755,33.338
			c5.023,6.292,10.865,11.98,17.115,17.043c4.272,3.461,9.27,7.46,14.757,8.715c0.223-1.637,0.443-3.274,0.665-4.911
			c-10.734-0.143-21.205-2.566-31.474-5.534c-10.216-2.953-17.991-10.296-27.102-15.437c-1.281-0.724-3.411-0.147-3.673,1.494
			c-4.031,25.466,31.523,31.567,47.871,40.528c0-1.439,0-2.878,0-4.317c-15.089,9.402-36.174-0.538-49.936-8.197
			c-1.672-0.93-3.727,0.244-3.762,2.159c-0.357,19.035,17.974,26.839,31.564,35.766c0.199-1.521,0.398-3.047,0.597-4.569
			c-7.096,2.75-15.412,0.614-22.412-1.442c-7.913-2.325-16.222-5.811-22.696-11.03c-1.871-1.51-4.84-0.162-4.178,2.432
			c2.256,8.834,10.616,11.459,17.037,16.678c0.588-1.422,1.178-2.845,1.768-4.268c-18.506,1.109-34.993-15.59-39.393-32.591
			c-0.808-3.12-5.63-1.795-4.822,1.329c4.931,19.048,23.539,37.502,44.215,36.262c1.951-0.117,3.602-2.777,1.768-4.268
			c-5.421-4.407-13.863-7.082-15.75-14.473c-1.395,0.812-2.785,1.622-4.179,2.432c6.899,5.563,15.25,9.171,23.615,11.917
			c8.013,2.629,18.166,5.017,26.357,1.843c2.02-0.782,2.511-3.313,0.598-4.57c-11.884-7.805-29.404-14.676-29.09-31.449
			c-1.253,0.72-2.508,1.439-3.762,2.159c15.435,8.59,38.173,18.671,54.982,8.197c1.547-0.963,1.693-3.389,0-4.317
			c-8.573-4.699-18.116-7.487-26.892-11.799c-8.916-4.382-20.514-11.512-18.682-23.083c-1.225,0.498-2.449,0.996-3.673,1.494
			c9.549,5.388,17.61,12.769,28.295,15.94c10.641,3.159,21.666,5.564,32.803,5.712c2.797,0.037,3.441-4.276,0.665-4.911
			c-4.357-0.996-8.354-4.154-11.807-6.837c-5.482-4.261-10.484-9.16-15.089-14.348c-5.161-5.816-18.834-21.654-10.526-29.554
			c-1.179,0-2.356,0-3.535,0c17.249,15.607,33.218,33.272,53.784,44.653c1.61,0.891,3.817-0.215,3.762-2.159
			c-0.593-20.566-20.839-35.417-32.309-50.442c-0.94,1.224-1.882,2.448-2.823,3.672c14.804,3.705,29.831,2.66,44.927,3.368
			c0-1.667,0-3.333,0-5c-13.096-0.273-21.695-7.683-31.642-15.145c-8.085-6.066-20.343-11.518-24.145-21.544
			c-1.225,0.941-2.448,1.882-3.673,2.823c14.931,6.753,31.34,7.631,47.318,10.088c2.826,0.435,4.29-2.858,1.927-4.569
			c-6.793-4.917-12.228-11.21-17.7-17.5c-2.416-2.776-4.655-5.56-7.394-8.032c-3.18-2.871-6.627-5.386-9.256-8.817
			c-0.94,1.224-1.882,2.448-2.823,3.672c14.731,2.795,28.368,9.574,43.288,11.565c1.844,0.246,3.172-2.32,2.158-3.762
			c-7.289-10.37-19.031-16.7-29.523-23.323c-6.396-4.037-12.843-7.27-19.964-9.839c-7.894-2.848-15.962-5.048-23.541-8.719
			c-0.421,1.553-0.841,3.106-1.262,4.659c14.208-0.728,28.416,0.728,42.623,0c2.31-0.118,3.637-3.492,1.262-4.659
			c-32.256-15.841-69.251-17.577-104.54-15.915c0.721,1.254,1.439,2.508,2.158,3.762c3.988-5.196,11.967-6.527,16.822-10.969
			c1.732-1.585,0.258-4.107-1.769-4.268c-37.338-2.958-63.6,32.169-66.434,66.434C210.396,100.298,215.398,100.272,215.662,97.083
			L215.662,97.083z"/>
	</g>
</g>
<g>
	<path fill="#3F403F" d="M222.507,95.712"/>
</g>
<g>
	<path fill="#C6C6C5" d="M219.372,95.169C231.236,85,249.88,64.661,267.677,67.204c2.542,8.474-4.237,20.339-9.321,26.271
		c-7.627,10.169-15.254,11.864-27.12,14.407"/>
	<g>
		<path d="M221.139,96.937c12.7-10.99,27.902-29.33,46.538-27.233c-0.804-0.612-1.606-1.224-2.411-1.835
			c2.328,9.533-4.83,19.319-10.588,26.21c-6.196,7.415-15.091,9.455-24.106,11.393c-3.152,0.677-1.815,5.497,1.329,4.821
			c10.708-2.301,20.016-5.143,27.269-13.822c6.707-8.027,13.579-19.031,10.919-29.931c-0.284-1.166-1.313-1.712-2.411-1.835
			c-20.128-2.264-36.374,16.843-50.073,28.698C215.162,95.515,218.714,99.036,221.139,96.937L221.139,96.937z"/>
	</g>
</g>
<g>
	<path fill="#E597C1" d="M223.609,100.254c12.712-8.475,21.187-20.339,37.288-22.881c-6.778,16.102-20.337,27.119-37.288,25.423"/>
	<g>
		<path d="M224.871,102.413c12.054-8.221,21.666-19.94,36.691-22.629c-0.941-1.224-1.883-2.448-2.823-3.672
			c-6.343,14.525-18.505,25.511-35.129,24.185c-3.216-0.256-3.191,4.746,0,5c18.218,1.453,32.451-10.636,39.447-26.662
			c0.899-2.062-0.543-4.081-2.824-3.672c-15.57,2.787-25.405,14.623-37.883,23.133C219.701,99.9,222.199,104.235,224.871,102.413
			L224.871,102.413z"/>
	</g>
</g>
<g>
	<path fill="#E9E9E9" d="M265.25,319.25c3-3.75,26.25,16.5,29.25,20.5c2.5,3.5,3.25,6.25,0.5,9.75c-3.25,4-6.75,7-11.25,9.25
		c-4.5,2-5,0.25-7.25-3.75c-2.75-4.75-4.5-10-6-15.5c-1.75-6.75-2.75-13-6-19.5"/>
	<g>
		<path fill="#E9E9E9" d="M267.018,321.018c-0.668,0.635-0.393,0.256,0.66,0.616c1.164,0.397,2.262,1.124,3.313,1.748
			c2.939,1.75,5.689,3.851,8.373,5.966c4.386,3.457,8.74,7.131,12.559,11.217c4.589,4.91-0.008,9.117-3.845,12.449
			c-0.95,0.825-6.236,5.061-7.58,3.844c-1.481-1.344-2.497-4.287-3.373-6.026c-5.106-10.127-5.608-21.84-10.465-32.093
			c-1.379-2.912-5.688-0.373-4.316,2.523c3.572,7.545,4.716,15.861,7.187,23.778c1.604,5.142,3.881,12.136,7.986,15.853
			c3.661,3.316,9.455-0.89,12.465-3.06c3.972-2.862,10.896-8.825,9.045-14.543c-2.592-7.992-11.473-13.878-17.801-18.788
			c-3.437-2.667-13.028-11.484-17.74-7.02C261.139,319.704,264.68,323.232,267.018,321.018L267.018,321.018z"/>
	</g>
</g>
<g>
	<path fill="#E9E9E9" d="M261.75,217.75c-2,7,2.25,13.5,6.25,19c4.25,6,9.25,11,14,16.5s9.75,12,16.25,15.75
		c7,4.25,15,7.25,22.5,10.75c6.5,3,12.75,5.5,19.75,6.25c5.75,0.5,11.5-0.75,17,0c14.5,2,23.25,14.5,25.25,28.25
		c0.75,6.75-1,13.25-2.5,19.75c-1.75,7.25-5.5,12.5-9.5,18.75c-1.5,2.75-2,7.75-5.5,8.5c-5,1.25-12.25-1.5-17.25-2.5
		c-7.25-1.75-14.25-3.25-21.25-4.5c-5-0.75-9.5-2.75-14.25-3.75c-3.25-0.5-6.75-0.5-10-0.75c-2.75-0.25-6.5,0-8.5-1.25
		c-7-4.5-9.75-13.25-15.5-18.75c-6.75-6.25-12.75-11.75-18-19.25c-5.25-7.75-10.25-15-16.25-22C239,282,235,274.25,229.5,267.75
		c-3-3.5-5.75-5.75-7.5-10s-7.75-12-6.25-16.75c1.75-5.25,12-10,16.75-12.75c5-3.25,11.25-5.75,17-7.5c1.75-0.5,4-1.25,5.75-1.5
		c2,0,3.5,0.75,5.25,0.75"/>
	<g>
		<path fill="#E9E9E9" d="M259.339,217.085c-2.801,12.728,8.304,23.871,16.097,32.543c4.498,5.004,8.711,10.288,13.418,15.099
			c4.975,5.08,11.192,8.357,17.567,11.346c12.549,5.879,25.616,12.927,39.82,12.482c7.347-0.229,13.775-0.525,20.352,3.269
			c5.65,3.261,9.468,9.104,11.744,15.065c5.31,13.902-0.302,29.903-7.924,41.774c-1.346,2.096-2.417,3.995-3.262,6.328
			c-1.55,4.28-4.188,4.385-8.333,3.741c-7.001-1.084-13.941-3.342-20.872-4.832c-6.753-1.451-13.476-2.529-20.087-4.563
			c-6.479-1.989-13.179-1.938-19.892-2.339c-6.444-0.385-10.431-9.568-13.655-14.188c-3.724-5.336-9.072-9.373-13.607-13.986
			c-9.033-9.189-15.314-20.76-23.5-30.689c-4.222-5.123-7.649-10.775-11.414-16.229c-3.349-4.851-7.984-8.83-10.931-13.913
			c-2.385-4.113-5.056-8.831-6.522-13.342c-1.717-5.284,5.708-8.765,9.359-10.882c4.412-2.559,8.863-5.197,13.494-7.328
			c3.327-1.531,6.857-2.657,10.366-3.691c3.153-0.93,5.762-0.542,8.943-0.25c3.212,0.294,3.184-4.708,0-5
			c-2.637-0.242-4.66-0.904-7.307-0.391c-3.094,0.6-6.177,1.777-9.14,2.83c-5.912,2.101-11.17,5.277-16.645,8.266
			c-8.177,4.465-17.179,9.735-13.023,20.184c1.815,4.563,4.48,9.239,6.942,13.486c1.374,2.37,3.459,4.379,5.291,6.383
			c2.923,3.198,5.331,6.814,7.72,10.417c3.655,5.512,7.491,10.676,11.631,15.825c5.153,6.407,9.431,13.431,14.374,19.985
			c3.738,4.959,8.161,9.328,12.669,13.578c5.104,4.813,8.603,10.033,12.685,15.675c2.604,3.598,6.128,7.534,10.783,8.086
			c7.377,0.872,14.411,0.604,21.604,2.813c6.635,2.039,13.521,3.008,20.299,4.465c6.868,1.478,13.677,3.611,20.617,4.688
			c3.686,0.57,8.566,0.607,10.854-2.925c1.125-1.737,1.791-3.646,2.492-5.583c1.224-3.379,3.951-6.477,5.768-9.58
			c7.482-12.801,9.573-29.569,3.771-43.271c-5.995-14.158-19.139-19.765-33.743-18.972c-10.167,0.552-18.627-2.413-27.747-6.61
			c-8.687-3.998-18.194-7.193-25.613-13.416c-6.377-5.35-11.463-12.5-17.012-18.672c-5.998-6.675-15.778-16.496-13.61-26.345
			C264.854,215.272,260.032,213.937,259.339,217.085L259.339,217.085z"/>
	</g>
</g>
<g>
	<path fill="#E9E9E9" d="M270.5,354c0-0.25-0.25-0.5-0.5-0.75c-5,2.5,0.5,17,2.25,20.5C275.5,380,279.75,386,283,392.5
		c6.75,12.75,2.25,25.25,1.75,39c0,2.5-1.75,7.5,1,8.75c2,0.75,5.5,0,7.5-0.75c4.5-1.5,9.25-3,13.75-4.75c3-1.25,5.5-2.75,8-4.5
		c3-2.5,2.25-5.75,3-9.25c1.5-6.75,4.75-14,8.25-20c4.5-8,13.5-14,20.5-19.5c3.5-2.75,6.75-5.5,9.75-8.75
		c3.75-3.5,7.75-6.25,10.75-10.5c-2.5-1.5-6.75-1.25-9.75-2c-4.5-1.25-9-2.5-13.5-3.5c-7.75-2.25-16.5-3-24.5-4.25
		c-15.5-2.25-30.25,2.25-45.5,2.25c-1.25,0-2.5,0.25-3.25-0.25"/>
	<g>
		<path fill="#E9E9E9" d="M272.658,352.738c-0.166-0.25-0.333-0.5-0.5-0.75c-0.727-1.09-2.229-1.676-3.42-0.896
			c-4.902,3.203-3.26,10.148-2.01,14.883c2.23,8.448,7.164,15.534,11.52,22.994c3.449,5.91,5.643,11.591,5.922,18.475
			c0.23,5.663-0.753,11.378-1.376,16.988c-0.481,4.331-1.299,9.189-1.024,13.551c0.174,2.778,2.289,4.919,5.092,5.024
			c4.285,0.163,8.19-1.472,12.195-2.797c5.082-1.682,10.071-3.386,14.688-6.135c3.534-2.104,5.744-4.541,6.206-8.752
			c0.669-6.102,2.729-11.691,5.344-17.22c9.244-19.554,31.345-27.765,44.115-44.593c0.771-1.017,0.236-2.894-0.896-3.42
			c-2.653-1.233-5.315-1.558-8.204-1.88c-4.121-0.46-8.249-2.068-12.268-3.08c-8.664-2.178-17.315-3.516-26.15-4.781
			c-8.182-1.173-16.119-1.027-24.328-0.168c-4.223,0.44-8.43,1.004-12.649,1.445c-3.912,0.409-9.681,1.682-13.496,0.461
			c-3.08-0.984-4.39,3.846-1.33,4.822c2.888,0.922,6.412,0.318,9.386,0.164c4.236-0.221,8.459-0.764,12.67-1.266
			c8.502-1.014,16.945-1.871,25.503-1.049c8.551,0.822,17.407,2.125,25.691,4.399c3.917,1.075,7.895,1.95,11.813,3.03
			c3.491,0.963,7.563,0.693,10.841,2.217c-0.299-1.141-0.599-2.28-0.896-3.42c-2.928,3.856-6.801,6.763-10.358,9.994
			c-3.253,2.953-6.291,6.004-9.75,8.75c-6.31,5.006-12.938,9.545-18.059,15.854c-4.961,6.113-8.228,14.144-10.523,21.604
			c-1.44,4.682-0.532,9.586-5.182,12.567c-4.626,2.969-10.045,4.49-15.221,6.202c-1.926,0.638-3.836,1.321-5.803,1.824
			c-3.407,0.87-3.602-1.012-3.227-3.651c0.537-3.782,0.594-7.637,1.016-11.438c1.039-9.356,2.144-18.465-1.06-27.538
			c-2.937-8.32-8.954-15.262-12.755-23.161c-1.32-2.744-6.32-14.358-2.91-16.587c-1.14-0.299-2.279-0.598-3.42-0.896
			c0.166,0.25,0.333,0.5,0.5,0.75C270.12,357.93,274.453,355.43,272.658,352.738L272.658,352.738z"/>
	</g>
</g>
<g>
	<path fill="#E9E9E9" d="M215.25,102c2.75-2,7.25-1,10.5-0.75c2.5,0,4.75,0.5,7,1.25c4.75,1.5,10,3,14.25,5.25
		c6.25,3.5,11.25,8,16.25,13.25c5.25,5.25,7,10.75,8.5,17.75C274.5,151.5,272,165.5,268.5,178c-1.75,6.25-3.5,13-5,19.5
		c-1.5,6.75,1.5,13.5-2.5,19.75c-3.75,6.5-13,9-19.5,11.25c-4.25,1.5-8.75,5.5-13.25,6c-4.75,0.5-7.75-3.25-11-6.5
		c-2.5-2.5-6.75-5-8.25-8.5c-1.25-3-1.75-6.5-1-9.5c1-4.5,3-5.5,6.5-7.5c5.5-3.25,7.75-11.25,11-16.5c3.5-5.75,5.75-12.5,6-19.5
		c0.75-15-11.25-26.25-11.25-41c0-4.75-2-9-3.25-13.25c-1.5-5-2-7.5,2.25-10.75"/>
	<g>
		<path fill="#E9E9E9" d="M216.512,104.159c2.792-1.555,6.221-0.697,9.238-0.409c3.943,0.377,7.436,1.495,11.196,2.688
			c7.704,2.445,13.93,6.269,19.884,11.704c4.954,4.521,8.993,9.152,11.087,15.611c2.401,7.413,2.802,15.184,2.228,22.9
			c-1.127,15.157-8.319,29.18-9.572,44.22c-0.66,7.933,1.214,14.619-6.496,19.771c-4.981,3.329-11.094,4.25-16.415,6.85
			c-2.954,1.443-5.553,3.352-8.725,4.347c-3.736,1.172-6.664-2.291-8.948-4.623c-5.406-5.519-11.643-8.887-9.206-17.929
			c0.758-2.813,3.861-3.877,6.038-5.34c1.819-1.223,3.144-2.993,4.413-4.742c3.492-4.813,6.233-11.078,8.805-16.433
			c5.502-11.455,4.661-23.339-0.244-34.743c-2.443-5.68-5.144-11.209-6.513-17.272c-0.695-3.078-0.51-6.282-0.952-9.399
			c-0.542-3.817-2.259-7.514-3.334-11.202c-0.913-3.132-0.475-4.789,2.023-6.89c2.471-2.078-1.085-5.596-3.535-3.535
			c-3.499,2.943-4.5,6.011-3.643,10.456c0.601,3.119,1.888,6.144,2.844,9.164c1.175,3.71,0.831,7.508,1.514,11.286
			c2.247,12.428,11.082,22.911,10.803,35.862c-0.164,7.62-3.389,13.945-6.916,20.467c-3.147,5.821-5.022,11.068-10.963,14.608
			c-9.305,5.545-6.588,18.623,0.385,24.771c3.702,3.264,7.177,7.515,11.625,9.743c4.929,2.469,10.148-0.369,14.426-2.814
			c8.854-5.063,22.521-5.976,26.713-16.933c2.479-6.473,0.504-13.309,2.056-19.956c1.794-7.689,4.026-15.257,5.95-22.912
			c3.412-13.587,4.385-27.479,0.461-41.05c-3.262-11.284-13.41-19.994-23.055-26.007c-5.767-3.595-13.106-5.722-19.674-7.233
			c-4.846-1.115-11.543-1.834-16.02,0.658C211.171,101.41,213.692,105.729,216.512,104.159L216.512,104.159z"/>
	</g>
</g>
<g>
	<path fill="#E9E9E9" d="M57.25,243.25C60,243.5,63,245,66,245.75c2,0.25,4,0.5,6.25,0.75c5,0.75,10.25,1.5,15.5,2.25
		c10,1.25,20.5,0.5,30.25,2.25c-2,1-4.5,1.5-6.75,2.75c-1.5,1-1.5,1.25-3.75,0.75c-1.25-0.25-2.75-0.5-4.25-0.75
		c-5.5-0.25-11-1-16.5-1.25c-5.75-0.25-11.25,0-17,0.75c-2.5,0.25-4,1-5.75-0.75c-2.75-2.25-2-6.25-5.25-8.5"/>
	<g>
		<path fill="#E9E9E9" d="M56.585,245.661c3.75,0.591,7.143,2.306,10.918,2.777c5.883,0.733,11.745,1.602,17.613,2.442
			c10.69,1.53,21.559,0.791,32.218,2.532c-0.199-1.523-0.398-3.047-0.597-4.57c-1.756,0.771-3.651,1.239-5.376,2.08
			c-2.518,1.229-3.142,1.159-5.957,0.667c-5.485-0.955-11.266-1.097-16.822-1.488c-6.288-0.443-12.585-0.108-18.833,0.649
			c-3.68,0.445-4.923-0.945-6.225-4.33c-0.661-1.718-1.645-2.991-3.007-4.188c-2.412-2.119-5.962,1.403-3.535,3.535
			c3.678,3.232,2.988,8.561,8.413,10.235c2.312,0.714,5.839-0.439,8.156-0.679c3.75-0.386,7.524-0.444,11.29-0.39
			c7.214,0.105,14.911,0.639,21.994,1.977c4.375,0.824,8.478-2.021,12.426-3.753c1.926-0.845,1.461-4.233-0.597-4.569
			c-10.676-1.744-21.528-1.004-32.218-2.531c-4.726-0.675-9.454-1.518-14.196-2.058c-4.976-0.567-9.455-2.391-14.335-3.161
			C54.761,240.342,53.408,245.16,56.585,245.661L56.585,245.661z"/>
	</g>
</g>
<g>
	<path fill="#E9E9E9" d="M158,257.5c-2.75-0.25-5.25,0.25-7.75-0.75c-2.5-0.75-4.5-2-6.75-3c-5.25-1.75-12-3.25-17.5-2.75
		c-7,0.75-10.25,9.25-14,14.5c-4,6-9.5,12.75-11.75,20c-2.75,8,3.75,14.75,6.75,21.75c1.25,2.75,2,3.5,4.5,1.5
		c1.5-1.25,3-2.5,4.5-3.75c2.5-2,5.5-4.75,7.25-7.5c-1.75-0.5-3.75,0-5.75-0.25c-1.75-0.25-3.25-0.75-4.75-1.5
		c-1.25-0.25-4.5-1-5.25-2c-0.75-1.5,1.25-3.25,2.25-4.75c1.75-3,2.5-6.25,3.5-9.75c1.25-3.75,3-6.25,5.75-9.25
		c1.75-2.25,4.25-6.5,7.25-7.25c2-0.75,5.5,0.5,7.5,1.25c3,1,5,3.25,7.75,4.75c2.25,1.5,5.25,2.5,7.75,3c4.5,0.75,10.75,1,15-0.75
		c7.25-3-0.25-13.25-5.5-14"/>
	<g>
		<path fill="#E9E9E9" d="M158,255c-3.891-0.188-7.002-0.391-10.61-2.137c-2.573-1.245-5.029-2.125-7.799-2.865
			c-5.046-1.347-12.195-2.906-17.174-0.588c-4.25,1.979-6.871,5.764-9.288,9.632c-3.431,5.491-7.277,10.694-10.728,16.17
			c-3.01,4.777-5.701,10.31-5.178,16.077c0.526,5.797,4.462,10.883,7.018,15.913c1.359,2.674,3.632,7.103,7.407,4.479
			c5.081-3.529,10.202-7.822,13.761-12.92c0.862-1.236,0.042-3.43-1.494-3.674c-2.481-0.393-4.958-0.092-7.426-0.583
			c-0.055-0.011-6.098-2.426-6.361-1.868c1.01-2.13,2.671-3.728,3.496-6.057c1.232-3.479,1.937-7.074,3.707-10.34
			c1.185-2.186,3.042-3.926,4.519-5.906c2.513-3.371,4.225-5.982,8.847-4.748c5.13,1.369,9.017,5.448,13.92,7.449
			c6.341,2.587,20.675,4.059,24.508-3.311c3.144-6.043-4.193-13.888-9.71-15.138c-3.14-0.711-4.474,4.11-1.329,4.822
			c2.571,0.582,8.779,5.596,6.146,8.721c-1.709,2.028-6.647,1.681-8.982,1.683c-3.207,0.004-6.282-0.572-9.304-1.601
			c-5.04-1.713-8.759-5.756-13.92-7.448c-4.124-1.353-7.51-0.615-10.694,2.248c-3.17,2.848-6.036,7.127-8.318,10.704
			c-3.293,5.162-3.46,11.373-7.203,16.396c-6.181,8.296,13.307,9.248,16.775,9.799c-0.498-1.225-0.996-2.449-1.494-3.674
			c-2.647,3.791-6.343,6.564-9.859,9.494c-0.999,1.91-1.69,1.996-2.074,0.256c-0.386-0.889-0.808-1.762-1.264-2.615
			c-1.129-2.223-2.447-4.352-3.615-6.555c-5.631-10.618,3.149-20.31,9.001-28.76c1.957-2.824,3.678-5.789,5.553-8.666
			c3.075-4.721,6.318-6.188,11.89-5.891c5.379,0.288,10.655,1.99,15.457,4.314c3.922,1.897,7.556,1.979,11.82,2.184
			C161.225,260.154,161.209,255.154,158,255L158,255z"/>
	</g>
</g>
<g>
	<path fill="#E9E9E9" d="M204.965,204.492c-23.113,5.024-52.284,26.65-44.8,52.658c5.232,18.186,17.003,34.666,31.417,46.759
		c14.498,12.164,33.137,15.446,48.977,26.007c9.322,5.934,16.949,15.255,27.119,19.492c4.237,2.542,11.864,5.084,16.949,5.084"/>
	<g>
		<path d="M204.3,202.081c-17.339,3.962-34.765,14.619-43.547,30.452c-10.214,18.416,0.734,39.624,11.901,54.883
			c6.336,8.657,14.094,16.516,22.943,22.602c9.829,6.762,21.426,10.543,32.144,15.602c11.041,5.211,19.601,13.009,29.194,20.329
			c7.676,5.854,17.924,10.69,27.69,11.044c3.226,0.115,3.215-4.885,0-5c-20.077-0.727-33.481-19.549-49.954-28.473
			c-9.081-4.922-18.912-8.304-28.139-12.931c-9.66-4.844-17.657-11.79-24.8-19.825c-12.251-13.781-25.996-35.959-17.237-54.584
			c7.271-15.461,25.074-25.606,41.133-29.276C208.772,206.184,207.439,201.364,204.3,202.081L204.3,202.081z"/>
	</g>
</g>
<g>
	<path fill="#EAEAEA" d="M215.981,97.712c-16.102,6.78-30.508,20.339-44.915,29.661c-6.78,4.237-20.339,11.864-19.492,21.187
		c0,10.169,12.712,6.779,19.492,5.084c12.712-2.542,25.424-4.237,37.288-8.475c8.475-3.39,36.441-18.644,27.966-29.661"/>
	<g>
		<path d="M214.72,95.553c-10.935,4.761-20.492,11.887-29.989,18.993c-8.121,6.077-16.83,11.251-24.96,17.271
			c-5.892,4.363-11.895,10.599-10.547,18.563c1.202,7.098,8.013,8.175,14.123,7.412c10.004-1.25,20.154-3.814,30.019-5.898
			c8.638-1.825,16.736-4.352,24.476-8.572c8.43-4.596,29.115-16.891,20.639-29.076c-1.827-2.626-6.164-0.131-4.317,2.523
			c6.35,9.128-14.627,20-20.615,23.189c-14.29,7.61-31.238,8.559-46.779,12.156c-5.671,1.313-14.25,2.445-12.502-6.17
			c1.429-7.042,10.781-11.909,16.315-15.332c15.874-9.815,29.383-23.219,46.662-30.742C220.193,98.586,217.645,94.28,214.72,95.553
			L214.72,95.553z"/>
	</g>
</g>
<g>
	<g>
		<path d="M192.253,118.856c5.896,0.605,11.287-3.934,17.132-2.632c3.141,0.7,4.476-4.121,1.329-4.821
			c-6.597-1.469-12.092,3.106-18.461,2.453C189.046,113.527,189.078,118.53,192.253,118.856L192.253,118.856z"/>
	</g>
</g>
<g>
	<path fill="#3F403F" d="M107.507,316.355c7.627,14.406,13.56,9.321,23.729-0.848c2.542-2.543,11.017-9.322,10.169-13.56
		c0-5.085-9.322-5.933-14.407-7.628"/>
	<g>
		<path d="M105.348,317.617c2.648,4.791,6.866,11.302,13.324,10.012c6.658-1.33,11.426-7.708,16.148-12.059
			c3.573-3.289,11.069-9.372,8.89-15.19c-2.368-6.321-10.463-6.741-16.047-8.469c-3.089-0.954-4.4,3.873-1.329,4.821
			c2.593,0.802,12.168,1.771,12.571,5.217c0.438,3.748-5.172,7.828-7.621,10.087c-3.39,3.127-6.462,6.636-10.288,9.255
			c-5.533,3.787-8.833-1.678-11.332-6.197C108.106,312.271,103.788,314.793,105.348,317.617L105.348,317.617z"/>
	</g>
</g>
<g>
	<g>
		<path d="M219.372,100.212c15.433,0.149,29.395,5.213,40.593,15.966c6.359,6.107,11.379,13.339,13.729,21.886
			c2.421,8.803,1.471,18.352-0.18,27.19c-2.943,15.76-9.48,30.602-10.5,46.748c-0.943,14.942,5.463,27.894,14.76,39.173
			c2.054,2.49,5.569-1.069,3.535-3.536c-5.481-6.651-9.959-13.85-12.158-22.245c-2.022-7.724-1.262-15.891,0.191-23.634
			c3.184-16.956,10.157-32.816,10.745-50.272c0.565-16.807-7.272-30.784-19.651-41.663c-11.42-10.037-26.045-14.469-41.063-14.614
			C216.146,95.181,216.149,100.181,219.372,100.212L219.372,100.212z"/>
	</g>
</g>
<g>
	<g>
		<path d="M284.757,334.816c1.368,5.104-0.2,10.203-0.036,15.388c0.139,4.409,1.866,8.515,3.864,12.368
			c5.144,9.925,8.985,19.494,9.573,30.791c0.572,11.011-3.811,21.295-4.256,32.217c-0.256,6.271,0.799,12.8,1.373,19.041
			c0.559,6.075,1.293,12.13,2.192,18.163c0.476,3.18,5.293,1.823,4.822-1.33c-1.819-12.175-3.822-25.237-3.319-37.568
			c0.231-5.671,1.95-11.255,3.092-16.784c1.057-5.116,1.279-10.188,1.01-15.397c-0.508-9.74-3.801-18.675-7.813-27.456
			c-2.478-5.42-5.395-9.459-5.592-15.688c-0.165-5.226,1.306-9.871-0.089-15.072C288.745,330.376,283.922,331.698,284.757,334.816
			L284.757,334.816z"/>
	</g>
</g>
<g>
	<g>
		<path d="M270.352,239.055c2.863,13.21,15.369,22.106,26.281,28.602c12.416,7.391,26.14,12.813,39.87,17.213
			c3.08,0.985,4.388-3.843,1.33-4.822c-12.174-3.899-24.081-8.692-35.321-14.801c-10.889-5.918-24.514-14.488-27.339-27.521
			C274.489,234.575,269.67,235.911,270.352,239.055L270.352,239.055z"/>
	</g>
</g>
<g>
	<g>
		<path d="M331.901,287.411c16.148-6.511,35.738-5.44,45.542,10.766c12.104,20.013,3.968,47.091-9.841,63.869
			c-7.32,8.896-16.044,16.631-24.328,24.601c-7.904,7.603-17.01,15.85-22.278,25.604c-4.141,7.664-3.324,17.193-2.396,25.507
			c1.158,10.354,3.468,21.005,0.901,31.323c-0.777,3.13,4.044,4.457,4.822,1.33c2.561-10.305,0.745-20.822-0.547-31.174
			c-0.65-5.214-1.097-10.438-0.743-15.69c0.43-6.4,3.449-11.087,7.361-15.97c15.578-19.438,38.077-33.339,49.926-55.703
			c9.805-18.508,11.547-43.668-1.82-60.911c-11.287-14.561-32.24-14.697-47.931-8.374
			C327.621,283.779,328.908,288.617,331.901,287.411L331.901,287.411z"/>
	</g>
</g>
<g>
	<g>
		<path d="M264.329,350.255c0.004,10.31,0.08,20.972,3.963,30.688c3.347,8.375,10.865,14.338,13.96,22.855
			c1.834,5.051-0.04,11.072-1.121,16.116c-1.131,5.28-2.256,10.516-2.395,15.932c-0.242,9.474,1.498,19.9,5.173,28.632
			c1.231,2.925,6.071,1.641,4.821-1.33c-3.604-8.563-4.898-18.063-4.994-27.302c-0.104-10.064,6.086-20.791,3.98-30.795
			c-1.83-8.703-8.393-15.131-12.974-22.446c-5.853-9.347-5.41-21.734-5.415-32.352C269.328,347.029,264.328,347.029,264.329,350.255
			L264.329,350.255z"/>
	</g>
</g>
<g>
	<g>
		<path d="M136.394,256.792c-21.455-24.087-56.071-6.187-81.015-21.578c-1.766-1.09-3.557,0.378-3.762,2.159
			c-0.658,5.719,2.725,11.99,5.745,16.62c3.125,4.793,7.867,6.879,13.355,5.694c15.546-3.353,32.051,1.795,47.807,1.937
			c3.226,0.028,3.223-4.972,0-5c-13.219-0.118-26.267-2.74-39.472-3.095c-4.529-0.122-10.653,3.062-14.657,0.623
			c-4.542-2.767-8.367-11.658-7.778-16.779c-1.254,0.72-2.508,1.439-3.762,2.159c24.371,15.038,59.581-2.132,80.003,20.795
			C135.007,262.739,138.531,259.189,136.394,256.792L136.394,256.792z"/>
	</g>
</g>
<g>
	<path fill="#3F403F" d="M54.117,238.221c-4.237-1.695-11.017-7.627-16.102-4.237c-4.237,4.237-0.848,12.712,0.847,16.102
		c3.39,7.627,22.034,29.661,24.577,10.169"/>
	<g>
		<path d="M55.379,236.062c-5.644-2.526-17.475-10.779-21.084-0.844c-2.513,6.915,1.183,14.908,5.059,20.638
			c3.631,5.369,8.799,11.707,15.072,14.031c6.803,2.522,10.465-2.838,11.424-8.968c0.493-3.153-4.324-4.508-4.821-1.33
			c-0.744,4.757-2.178,7.362-6.83,4.601c-4.001-2.375-7.295-6.405-10.004-10.112c-2.354-3.222-4.072-6.731-5.172-10.567
			c-1.261-4.398-0.107-9.181,5.466-7.404c2.956,0.942,5.542,3.01,8.367,4.274C55.772,241.685,58.317,237.377,55.379,236.062
			L55.379,236.062z"/>
	</g>
</g>
<g>
	<g>
		<path d="M215.134,318.009c3.224,0,3.224-5,0-5C211.91,313.009,211.91,318.009,215.134,318.009L215.134,318.009z"/>
	</g>
</g>
<g>
	<g>
		<path d="M167.677,272.246c3.224,0,3.224-5,0-5C164.453,267.246,164.453,272.246,167.677,272.246L167.677,272.246z"/>
	</g>
</g>
<g>
	<g>
		<path d="M236.985,202.081c-18.329-5.919-38.014,3.545-50.983,16.356c-6.753,6.67-11.123,14.724-14.81,23.356
			c-1.489,3.486-3.214,7.164-6.314,9.506c-4.237,3.201-9.851,2.499-14.626,1.288c-9.083-2.305-18.358-7.011-27.839-3.828
			c-7.714,2.591-12.2,10.712-16.218,17.183c-4.412,7.104-7.751,16.076-10.126,24.068c-2.752,9.262,4.669,19.436,9.279,26.76
			c1.712,2.722,6.04,0.215,4.317-2.522c-5.229-8.31-11.064-16.49-7.596-26.569c2.649-7.697,6.118-15.48,10.419-22.398
			c2-3.217,4.163-6.25,6.908-8.877c4.239-4.057,9.77-4.131,15.233-3.129c8.221,1.51,16.141,6.351,24.708,5.181
			c15.083-2.06,17.021-19.187,24.441-29.738c10.908-15.51,32.756-27.987,51.877-21.813
			C238.733,207.896,240.041,203.068,236.985,202.081L236.985,202.081z"/>
	</g>
</g>
<g>
	<g>
		<path d="M108.171,317.072c8.063-2.67,19.398-11.689,21.238-20.391c0.299-1.414-0.404-2.595-1.746-3.076
			c-5.403-1.938-12.409,0.017-17.199-3.138c0,1.438,0,2.878,0,4.316c2.032-1.24,3.653-2.765,4.57-5.009
			c1.23-3.014,0.906-6.903,2.403-9.719c2.134-4.016,4.75-7.832,7.2-11.656c0.475-0.74,0.957-1.477,1.44-2.211
			c0.997-1.517,0.448-1.065,1.687-0.834c3.293,0.613,6.16,4.062,8.695,6.045c4.727,3.701,9.774,6.965,15.814,7.719
			c15.761,1.968,27.97-12.223,41.463-17.461c7.482-2.905,15.338-4.307,22.263-8.563c7.094-4.361,12.052-11.413,19.04-15.937
			c2.696-1.745,0.192-6.075-2.523-4.317c-6.577,4.258-11.504,10.394-17.749,15.055c-6.945,5.185-15.993,6.469-23.916,9.545
			c-12.947,5.025-27.939,22.3-43.12,15.373c-5.554-2.533-9.884-7.158-14.875-10.543c-3.233-2.192-7.861-3.252-10.357,0.297
			c-2.749,3.908-5.208,8.051-7.697,12.125c-1.011,1.656-1.909,3.127-2.455,4.996c-1.11,3.802-0.584,8.443-4.408,10.778
			c-1.659,1.013-1.567,3.285,0,4.316c5.496,3.618,12.417,1.495,18.394,3.643c-0.582-1.024-1.164-2.051-1.746-3.075
			c-1.461,6.912-11.333,14.775-17.746,16.897C103.796,313.259,105.102,318.088,108.171,317.072L108.171,317.072z"/>
	</g>
</g>
<g>
	<g>
		<path fill="#E9E9E9" d="M156,263.75c3.031,0.143,5.981-0.65,9-0.75c-0.42-1.553-0.841-3.105-1.262-4.658
			c-2.564,1.403-5.431,2.094-8,3.5c-2.188,1.198-1.199,4.694,1.262,4.658c2.478-0.036,5.004-0.241,7.415-0.839
			c-0.642-1.522-1.284-3.047-1.926-4.569c-1.069,0.557-2.213,0.867-3.25,1.5c-2.54,1.547-0.786,5.041,1.926,4.569
			c1.631-0.284,3.18-0.731,4.75-1.25c-0.443-1.606-0.886-3.216-1.329-4.822c-1.25,0.5-2.5,1-3.75,1.5
			c-2.935,1.175-1.882,5.563,1.329,4.822c1.115-0.259,2.187-0.591,3.335-0.661c-0.222-1.637-0.443-3.273-0.665-4.911
			c-1.5,0.5-3,1-4.5,1.5c-2.565,0.854-2.276,5.093,0.665,4.911c1.682-0.104,3.269-0.512,4.915-0.839
			c-0.443-1.606-0.886-3.216-1.329-4.822c-1.711,0.53-3.345,1.002-4.847,2.003c-1.907,1.27-1.394,4.869,1.262,4.658
			c1.588-0.126,3.112-0.502,4.665-0.839c-0.642-1.522-1.284-3.047-1.926-4.569c-1.194,0.553-2.392,1.032-3.5,1.75
			c-1.934,1.251-1.374,4.879,1.262,4.658c2.581-0.215,4.687-1.286,7.012-2.342c-0.841-1.438-1.682-2.879-2.523-4.316
			c-2.068,1.033-4.143,2.049-6.25,3c-2.298,1.037-1.121,4.76,1.262,4.658c3.674-0.155,7.275-1.389,10.512-3.092
			c-0.841-1.438-1.682-2.879-2.523-4.316c-2.539,1.691-5.398,3.025-8.488,3.158c-2.698,0.115-3.555,4.388-0.665,4.911
			c4.419,0.799,8.771-0.853,12.182-3.644c2.245-1.836-0.636-5.322-3.029-3.927c-2.817,1.644-6.048,2.375-9,3.75
			c-2.813,1.31-0.613,4.918,1.926,4.569c3.72-0.512,6.773-2.762,9.847-4.754c2.695-1.744,0.191-6.074-2.523-4.315
			c-2.731,1.769-5.347,3.793-8.653,4.247c0.642,1.523,1.284,3.047,1.926,4.568c2.964-1.379,6.157-2.09,9-3.75
			c-1.01-1.309-2.02-2.616-3.029-3.926c-1.898,1.554-4.831,2.808-7.318,2.356c-0.222,1.638-0.443,3.274-0.665,4.911
			c3.965-0.17,7.729-1.653,11.012-3.842c2.675-1.782,0.346-5.826-2.523-4.316c-2.43,1.277-5.226,2.292-7.988,2.408
			c0.42,1.553,0.841,3.105,1.262,4.658c2.108-0.95,4.182-1.967,6.25-3c2.916-1.457,0.364-5.627-2.523-4.316
			c-1.448,0.656-2.87,1.523-4.488,1.658c0.42,1.553,0.841,3.105,1.262,4.658c1.108-0.717,2.307-1.196,3.5-1.75
			c2.691-1.246,0.71-5.144-1.926-4.569c-1.102,0.239-2.208,0.571-3.335,0.661c0.42,1.553,0.841,3.105,1.262,4.658
			c1.144-0.762,2.353-1.096,3.653-1.498c3.103-0.961,1.813-5.446-1.329-4.821c-1.197,0.237-2.362,0.586-3.585,0.661
			c0.222,1.637,0.443,3.273,0.665,4.91c1.5-0.5,3-1,4.5-1.5c2.565-0.854,2.276-5.092-0.665-4.91c-1.607,0.1-3.103,0.479-4.665,0.839
			c0.443,1.606,0.886,3.215,1.329,4.821c1.25-0.5,2.5-1,3.75-1.5c2.917-1.166,1.792-5.854-1.329-4.821
			c-1.57,0.521-3.119,0.967-4.75,1.25c0.642,1.522,1.284,3.047,1.926,4.569c1.028-0.627,2.184-0.944,3.25-1.5
			c2.581-1.344,0.762-5.235-1.926-4.569c-1.991,0.494-4.04,0.631-6.085,0.661c0.42,1.553,0.841,3.105,1.262,4.658
			c2.564-1.403,5.431-2.094,8-3.5c2.164-1.186,1.217-4.739-1.262-4.658c-3.019,0.099-5.971,0.893-9,0.75
			C152.775,258.6,152.79,263.6,156,263.75L156,263.75z"/>
	</g>
</g>
<g>
	<g>
		<path fill="#9AA8CB" d="M161,264c3.458-0.186,5.762-2.607,8.915-3.589c3.068-0.956,1.758-5.783-1.329-4.822
			c-1.346,0.42-2.585,1.058-3.806,1.757c-1.154,0.659-2.409,1.581-3.78,1.654C157.793,259.173,157.776,264.174,161,264L161,264z"/>
	</g>
</g>
<g>
	<g>
		<path fill="#E9E9E9" d="M161.165,263.161c2.684-0.456,5.424-0.548,8-1.5c2.997-1.109,1.702-5.942-1.329-4.822
			c-2.574,0.952-5.317,1.045-8,1.5C156.662,258.878,158.012,263.695,161.165,263.161L161.165,263.161z"/>
	</g>
</g>
<g>
	<g>
		<path fill="#E9E9E9" d="M161.165,273.661c3.378-0.667,6.315-2.563,9.097-4.503c2.625-1.828,0.129-6.165-2.523-4.316
			c-2.445,1.703-4.933,3.412-7.903,3.997C156.673,269.463,158.016,274.281,161.165,273.661L161.165,273.661z"/>
	</g>
</g>
<g>
	<g>
		<path fill="#E9E9E9" d="M140.165,255.839c-4.601-1.647-9.021-4.016-14.079-3c-5.121,1.029-7.73,5.332-11.353,8.644
			c-2.385,2.181,1.161,5.705,3.535,3.535c2.555-2.334,4.636-5.841,7.967-7.119c4.045-1.553,8.907,1.439,12.601,2.764
			C141.878,261.751,143.177,256.918,140.165,255.839L140.165,255.839z"/>
	</g>
</g>
<g>
	<g>
		<path fill="#E9E9E9" d="M141.018,260.482c-2.865-2.291-5.736-4.472-9.353-5.395c-3.126-0.797-4.452,4.025-1.329,4.822
			c2.75,0.701,4.962,2.359,7.147,4.105c1.063,0.852,2.492,1.043,3.535,0C141.901,263.135,142.084,261.334,141.018,260.482
			L141.018,260.482z"/>
	</g>
</g>
<g>
	<g>
		<path fill="#E9E9E9" d="M210.482,311.018c1.888,2.407,5.639,3.989,8.603,4.395c1.349,0.184,2.678-0.305,3.075-1.746
			c0.325-1.182-0.393-2.893-1.746-3.076c-2.234-0.304-4.964-1.279-6.397-3.105c-0.842-1.074-2.659-0.877-3.535,0
			C209.433,308.532,209.642,309.945,210.482,311.018L210.482,311.018z"/>
	</g>
</g>
<g>
	<path fill="#C6C4C4" d="M195.643,96.864c12.712,21.187,31.356,16.949,49.153,27.966c-3.39-8.475-14.407-12.712-18.644-20.339
		c5.932,5.084,14.407,8.475,20.339,14.407c5.932,5.932,5.932,11.864,7.627,19.491c4.237-9.322-4.237-24.576-11.017-31.356
		c8.475,3.39,13.559,11.865,22.034,16.102c1.695-15.254-21.186-28.813-33.898-30.509C220.219,90.932,206.66,91.78,195.643,96.864"/>
	<g>
		<path d="M193.484,98.126c5.229,8.384,12.135,14.093,21.234,17.852c9.601,3.966,19.785,5.604,28.815,11.012
			c2.325,1.393,4.392-1.271,3.42-3.42c-3.98-8.804-13.758-12.315-18.644-20.339c-1.309,1.01-2.618,2.02-3.926,3.029
			c5.648,4.627,12.296,7.759,18.005,12.293c6.765,5.373,7.644,12.604,9.317,20.501c0.564,2.663,3.997,2.085,4.822,0
			c4.553-11.505-3.873-25.714-11.661-33.788c-1.01,1.309-2.02,2.618-3.029,3.926c8.468,3.74,13.92,11.736,22.034,16.102
			c1.749,0.941,3.622-0.258,3.762-2.159c1.042-14.2-13.351-24.455-24.796-29.576c-14.953-6.691-33.707-5.339-48.457,1.146
			c-2.946,1.295-0.399,5.602,2.523,4.317c13.086-5.753,29.514-6.645,42.898-1.361c10.042,3.964,23.731,13.22,22.832,25.474
			c1.254-0.72,2.508-1.439,3.762-2.159c-8.112-4.367-13.528-12.346-22.034-16.102c-2.498-1.103-5.121,1.758-3.029,3.926
			c6.624,6.867,14.256,19.112,10.374,28.924c1.606,0,3.215,0,4.821,0c-1.51-7.12-2.448-13.597-7.16-19.408
			c-5.591-6.895-14.706-10.07-21.449-15.593c-2.088-1.71-5.497,0.45-3.926,3.029c4.881,8.016,14.732,11.686,18.644,20.339
			c1.14-1.14,2.28-2.28,3.42-3.42c-7.521-4.504-15.801-6.825-24.1-9.431c-10.273-3.226-18.367-8.356-24.156-17.639
			C196.1,92.874,191.772,95.382,193.484,98.126L193.484,98.126z"/>
	</g>
</g>
<g>
	<path fill="#E9E9E9" d="M168.75,129.75c-3.25,2.75-14.5,4.5-17.5,7.75c-2.75,3.25,0.25,7.75,1.75,10.75"/>
	<g>
		<path d="M167.488,127.591c-4.33,3.283-10.551,3.807-15.388,6.238c-6.858,3.449-3.981,10.414-1.259,15.682
			c1.48,2.866,5.795,0.336,4.317-2.523c-1.064-2.062-3.928-6.011-1.724-8.119c1.327-1.269,3.671-1.83,5.352-2.42
			c3.693-1.298,8.05-2.132,11.226-4.54C172.546,129.987,170.059,125.642,167.488,127.591L167.488,127.591z"/>
	</g>
</g>
<g>
	<path fill="#E9E9E9" d="M152.75,152.5c1.75,6.25,12,9,17.25,8c6.5-1.5,7-9.75,13.75-11.75"/>
	<g>
		<path d="M150.339,153.165c2.386,6.625,9.29,9.247,15.806,9.971c3.053,0.339,6.35-0.3,8.727-2.337
			c3.433-2.942,5.111-7.987,9.542-9.637c2.994-1.115,1.699-5.949-1.329-4.821c-5.322,1.981-7.195,6.337-10.912,10.206
			c-4.158,4.326-15.174,0.397-17.013-4.709C154.077,148.826,149.244,150.124,150.339,153.165L150.339,153.165z"/>
	</g>
</g>
<g>
	<g>
		<path d="M199.232,113.732c-2.012,1.735-2.827,4.734-1.422,7.097c1.625,2.734,5.181,2.643,7.65,1.229
			c2.38-1.363,3.382-4.507,1.75-6.834c-1.686-2.405-4.663-2.911-7.221-1.633c-1.218,0.609-1.551,2.303-0.897,3.42
			c0.722,1.232,2.202,1.506,3.42,0.897c0.266-0.132,0.265-0.132-0.002-0.001c0.128-0.041,0.259-0.073,0.392-0.097
			c-0.754,0.161,0.604,0.159-0.212,0.015c0.116,0.024,0.23,0.056,0.343,0.094c-0.324-0.148-0.365-0.162-0.122-0.039
			c0.228,0.146,0.2,0.112-0.085-0.104c0.132,0.102,0.244,0.226,0.355,0.35c-0.526-0.583,0.114,0.508-0.17-0.268
			c0.033,0.1,0.058,0.202,0.076,0.305c-0.155-0.733-0.148,0.186-0.017-0.541c-0.077,0.255-0.049,0.213,0.084-0.126
			c-0.053,0.107-0.114,0.208-0.184,0.306c0.197-0.256,0.197-0.279-0.001-0.069c0.377-0.366-0.162,0.082-0.248,0.131
			c-0.259,0.148-0.188,0.096-0.621,0.208c-0.306,0.06-0.308,0.061-0.004,0.003c-0.136,0.006-0.271,0.003-0.407-0.009
			c0.347,0.051,0.386,0.044,0.115-0.02c0.322,0.151,0.363,0.165,0.125,0.04c-0.226-0.15-0.188-0.12,0.114,0.089
			c-0.407-0.367,0.28,0.46,0-0.01c0.399,0.671-0.043-0.479,0.056,0.308c-0.011-0.116-0.015-0.233-0.011-0.35
			c0.001-0.601-0.126,0.546,0.024-0.057c0.089-0.261,0.074-0.244-0.045,0.052c0.059-0.123,0.125-0.242,0.197-0.357
			c0.157-0.229,0.156-0.234-0.002-0.012c0.15-0.178,0.328-0.331,0.504-0.482c1.033-0.891,0.91-2.625,0-3.535
			C201.751,112.716,200.263,112.843,199.232,113.732L199.232,113.732z"/>
	</g>
</g>
<g>
	<g>
		<path d="M153.054,156.119c2.651,1.842,5.42,2.554,8.467,1.111c4.659-2.207,9.151-4.311,13.978-6.172
			c2.231-0.86,1.263-4.487-0.997-3.616c-2.915,1.124-5.948,2.026-8.78,3.353c-3.652,1.711-6.769,4.869-10.775,2.086
			C152.955,151.498,151.083,154.75,153.054,156.119L153.054,156.119z"/>
	</g>
</g>
<g>
	<path d="M160.902,138.323c-0.5-2.5,3.75-3,3.5,0c0,1.75-3.5,4.25-5,4.75c-1,0.75-6.5,1.5-4.5-1.5c1-1.75,4.75,0,6-3"/>
	<g>
		<path d="M162.152,138.323c-0.06-0.513,0.318-1.19,0.904-0.684c0.769,0.664-0.917,2.135-1.29,2.482
			c-1.181,1.099-2.742,1.982-4.332,2.294c-0.56,0.11-1.383,0.202-1.911-0.071c0.568,0.293,0.151-0.078,0.659-0.283
			c0.442-0.179,0.965-0.193,1.434-0.246c1.893-0.213,3.474-0.826,4.365-2.611c0.718-1.438-1.438-2.705-2.158-1.262
			c-0.904,1.811-2.989,1.176-4.595,1.826c-1.369,0.555-2.179,2.08-1.928,3.518c0.492,2.812,5.142,1.485,6.718,0.884
			c2.849-1.086,6.985-4.406,5.18-7.821c-1.482-2.803-5.887-0.941-5.546,1.975C159.837,139.904,162.339,139.922,162.152,138.323
			L162.152,138.323z"/>
	</g>
</g>
<g>
	<path fill="#C6C4C4" d="M382.083,332.458c-2.542-5.085-1.694-11.017,3.391-15.254c5.933-5.085,11.864-0.849,17.796,2.542
		c11.019,7.627,16.949,17.797,17.798,31.355c0,11.018-4.237,23.729-12.712,31.355c-9.322,9.322-19.491,16.102-22.882,29.661
		c-2.543,11.017,0.848,21.187,1.694,31.354c0.848,14.407-10.169,17.797-22.881,22.883c-16.103,6.778-33.898,9.321-50,16.948
		c-10.17,4.237-19.492,9.321-28.813,15.254c5.932-5.933,15.254-13.56,19.49-21.187c-11.863-2.542-27.966,4.237-38.982,6.779
		c-16.949,3.391-31.355,5.933-47.458-1.694c28.813-1.695,50-6.779,70.339-28.813c-14.407,3.391-31.356,6.779-44.068-3.39
		c15.254-5.085,32.204-4.237,47.458-7.628c20.339-4.237,32.203-9.321,40.678-30.508c4.237-11.864,6.78-18.645,19.491-25.424
		c6.78-3.391,13.561-4.237,19.492-8.476c11.864-7.627,27.966-40.678,11.017-50.848"/>
	<g>
		<path d="M384.242,331.195c-1.415-3.227-1.29-6.2,0.356-9.273c2.926-5.454,8.271-4.941,12.959-2.561
			c5.174,2.629,9.546,6.227,13.267,10.658c7.523,8.965,8.969,21.207,6.294,32.244c-5.355,22.09-32.465,29.891-34.784,53.496
			c-0.603,6.136,0.113,12.116,1.042,18.179c0.902,5.887,2.559,12.308-0.16,17.948c-1.967,4.08-6.382,6.362-10.271,8.223
			c-5.098,2.438-10.535,4.434-15.847,6.344c-12.163,4.377-24.863,7.023-36.954,11.64c-12.57,4.8-24.57,11.136-35.934,18.309
			c1.01,1.31,2.02,2.618,3.029,3.927c6.968-6.874,14.848-13.155,19.882-21.692c0.768-1.3,0.113-3.378-1.493-3.673
			c-12.861-2.356-25.561,2.85-37.785,6.15c-15.684,4.236-32.903,6.053-48.059-0.813c-0.42,1.555-0.841,3.106-1.262,4.659
			c13.451-0.825,26.927-2.396,39.635-7.103c12.587-4.662,23.351-12.707,32.472-22.443c1.733-1.851,0.021-4.751-2.433-4.179
			c-14.137,3.303-29.66,6.306-42.141-3.139c-0.199,1.523-0.398,3.048-0.597,4.57c21.789-6.929,45.501-4.072,66.764-13.407
			c7.226-3.172,12.964-8.479,17.333-14.977c5.23-7.777,6.827-17.203,11.799-25.07c6.463-10.224,18.749-12.012,28.787-16.969
			c6.866-3.392,11.709-9.931,15.445-16.392c6.831-11.813,12.576-31.609-1.396-40.637c-2.718-1.757-5.222,2.573-2.523,4.315
			c13.653,8.823,2.366,31.332-4.974,40.679c-6.229,7.934-15.138,9.432-23.842,13.528c-7.391,3.479-13.546,8.548-17.469,15.771
			c-3.92,7.218-5.697,15.245-10.146,22.25c-4.277,6.735-10.669,11.342-18.024,14.205c-20.229,7.878-42.577,5.359-63.085,11.88
			c-2.219,0.706-2.293,3.287-0.597,4.57c13.533,10.238,30.639,7.229,45.996,3.642c-0.813-1.394-1.623-2.785-2.434-4.179
			c-8.914,9.517-19.236,17.072-31.514,21.619c-11.824,4.379-24.561,5.695-37.058,6.462c-2.25,0.138-3.709,3.55-1.262,4.659
			c14.396,6.521,28.808,5.811,44.018,2.995c13.873-2.567,28.699-10.454,43.021-7.828c-0.498-1.225-0.995-2.449-1.493-3.673
			c-4.802,8.142-12.453,14.123-19.101,20.681c-2.007,1.979,0.601,5.459,3.028,3.927c13-8.207,26.813-15.258,41.396-20.195
			c13.572-4.597,27.35-8.005,40.701-13.293c8.467-3.354,17.292-7.161,20.18-16.557c1.61-5.233,0.271-11.106-0.545-16.355
			c-1.287-8.292-2.32-16.396,0.317-24.547c4.003-12.366,16.298-19.449,24.438-28.773c7.492-8.581,11.278-21.596,10.072-32.854
			c-1.169-10.916-6.479-20.431-14.772-27.526c-4.227-3.617-9.5-6.845-14.969-8.06c-5.592-1.242-10.286,2.547-13.271,6.842
			c-2.994,4.31-2.332,9.816-0.358,14.32C381.217,336.667,385.523,334.119,384.242,331.195L384.242,331.195z"/>
	</g>
</g>
<g>
	<path fill="#969A9E" d="M394,327.5c9.5,2.5,21.5,14.5,21,24.5c-0.5,12-12,18.5-21,24.5s-14,12-17,23c-2.5,11.5-1,21-1,32.5
		c-6.5-1-11-19.5-11-25.5c0.5-11,5-18.5,13.5-26c8-7,18-12.5,20.5-24c1.5-8,2.5-23-6-27"/>
	<g>
		<path fill="#969A9E" d="M393.502,329.309c9.289,2.771,19.65,12.414,19.623,22.691c-0.03,11.564-13.072,18.117-21.274,23.699
			c-7.109,4.841-12.213,11.045-15.313,19.068c-4.535,11.729-2.494,24.992-2.411,37.231c0.791-0.603,1.582-1.205,2.373-1.808
			c-4.012-0.981-5.863-7.32-7.004-10.674c-1.346-3.958-2.346-8.199-2.604-12.379c-0.836-13.529,9.899-23.01,19.438-30.619
			c8.674-6.922,14.096-14.067,15.295-25.285c0.861-8.063,0.373-18.99-7.675-23.354c-2.126-1.151-4.02,2.085-1.894,3.238
			c9.406,5.102,6.9,23.397,2.731,31.161c-2.756,5.131-7.745,8.902-12.208,12.464c-4.727,3.771-9.163,7.626-12.863,12.438
			c-5.915,7.694-7.49,17.396-5.608,26.713c1.266,6.271,3.997,18.104,11.396,19.911c1.173,0.287,2.382-0.561,2.373-1.808
			c-0.097-14.149-2.347-28.914,4.906-41.811c5.464-9.717,16.501-14.108,24.727-21c7.396-6.194,11.56-15.439,7.834-24.789
			c-3.438-8.629-12.015-16.076-20.844-18.709C392.175,324.999,391.19,328.618,393.502,329.309L393.502,329.309z"/>
	</g>
</g>
<g>
	<path fill="#969A9E" d="M291.5,464c10-4.5,13-15,24-17c13-2,21.5-10,28.5-21c-2.5,15.5-7,30-24.5,32c-8.5,1-23.5,1.5-29.5,8"/>
	<g>
		<path fill="#969A9E" d="M292.445,465.619c4.585-2.244,8.051-5.652,11.564-9.281c1.93-1.99,3.911-3.84,6.242-5.357
			c3.04-1.98,6.65-2.221,10.07-3.1c11.171-2.871,19.238-11.598,25.296-20.935c-1.144-0.481-2.285-0.963-3.427-1.444
			c-2.051,12.389-5.518,26.049-19.08,29.938c-11.298,3.236-25.258,0.182-34.438,9.234c-1.724,1.7,0.931,4.352,2.652,2.652
			c9.659-9.526,26.345-4.803,37.935-10.207c11.426-5.327,14.691-19.396,16.547-30.621c0.342-2.061-2.219-3.307-3.427-1.444
			c-6.629,10.221-15.053,17.996-27.379,20.14c-10.552,1.833-15.351,12.733-24.448,17.188
			C288.382,463.444,290.283,466.678,292.445,465.619L292.445,465.619z"/>
	</g>
</g>
<g>
	<path fill="#95999D" d="M269.5,103.975c10,0.5,31,12,31.5,23.5c0,4.5-3.5,9-3.5,14c0,6.5,5.5,9,9.5,13.5c4.5,5.5,0.5,6-4,10.5
		c-3.5,4-6,8-7,13.5c-1,10-0.5,20.5,5.5,29c-7.5-6.5-14-17-14-27.5c-0.5-6,3-11,3.5-17c1-6-2-11-4-17c-1.5-6-2-9,0.5-14.5
		c2-5.5,4.5-9,0-13.5c-2.5-3-7-5.5-9.5-8c-3.5-3-8-8.5-12.5-9"/>
	<g>
		<path fill="#95999D" d="M269.5,105.85c9.439,0.736,19.384,6.793,25.688,13.603c4.715,5.093,3.992,9.657,1.736,15.731
			c-1.713,4.616-1.775,9.135,1,13.303c1.271,1.909,3.139,3.425,4.827,4.943c3.17,2.848,5.173,5.421,1.28,8.606
			c-4.246,3.474-7.241,8.17-9.063,13.308c-3.672,10.353-1.03,24.627,4.913,33.577c0.98-0.757,1.963-1.515,2.945-2.272
			c-9.26-8.328-16.03-20.803-12.378-33.426c1.405-4.86,2.96-9.333,2.454-14.475c-0.547-5.553-3.661-10.63-4.858-16.056
			c-2.06-9.339,8.097-17.226,0.782-25.543c-3.314-3.771-7.852-6.398-11.503-9.839c-3.347-3.154-6.653-6.673-11.325-7.643
			c-2.359-0.49-3.363,3.125-0.996,3.616c5.094,1.058,8.895,5.948,12.574,9.352c3.497,3.234,11.285,6.56,10.447,12.3
			c-0.647,4.45-3.869,8.2-4.086,12.792c-0.231,4.888,1.265,9.469,3.013,13.973c2.383,6.14,2.782,11.153,0.843,17.521
			c-1.52,4.988-2.45,9.154-1.979,14.399c0.896,9.958,7.106,19.156,14.358,25.68c1.521,1.368,4.177-0.42,2.945-2.272
			c-7.95-11.97-8.552-31.067,2.416-41.363c2.507-2.354,6.983-4.945,4.743-9.079c-3.005-5.544-10.454-8.304-10.903-15.112
			c-0.38-5.766,4.29-10.412,3.165-16.413c-0.805-4.29-4.227-8-7.292-10.853c-6.71-6.241-16.511-11.389-25.748-12.109
			C267.087,101.912,267.105,105.664,269.5,105.85L269.5,105.85z"/>
	</g>
</g>
<g>
	<path fill="#95999D" d="M282.5,66.5c7.5-2,17.5-1,25,1c2,0.5,8,1.5,9.5,4.5c1,2.5-2.5,3.5-1.5,6.5c1,4.5,15.5,9,19.5,11.5
		c5,2.5,11,5,15.5,9c-5.5,3.5-18,2-23.5,0.5c-5.5-2-17-6-20.5-10.5c-2.5-3.5,0-5.5-2-9.5c-2-3-7-5.5-10.5-7.5s-10.5-8-14.5-7"/>
	<g>
		<path fill="#95999D" d="M282.998,68.308c8.566-2.033,17.012-0.584,25.439,1.331c3.356,0.763,7.613,1.638,5.479,5.751
			c-0.868,1.671-0.39,3.695,0.517,5.229c2.542,4.3,9.46,6.37,13.729,8.218c7.189,3.114,14.979,6.448,21.014,11.489
			c0.127-0.981,0.253-1.963,0.38-2.945c-6.226,3.47-15.469,1.999-22.056,0.311c-3.354-0.859-6.752-2.47-9.918-3.84
			c-3.473-1.502-9.93-3.918-10.409-8.341c-0.275-2.547,0.41-5.104-1.345-7.336c-2.521-3.206-6.161-5.147-9.664-7.108
			c-4.962-2.778-10.519-8.7-16.662-7.941c-2.368,0.292-2.396,4.046,0,3.75c3.903-0.482,7.843,2.937,10.886,5.016
			c3.611,2.468,7.664,4.221,11.061,7.009c3.313,2.72,0.849,6.57,2.714,9.797c1.588,2.748,3.961,4.401,6.663,5.988
			c10.694,6.281,28.816,12.514,40.624,5.934c0.989-0.552,1.308-2.17,0.38-2.945c-6.039-5.045-13.546-8.483-20.729-11.623
			c-3.283-1.436-6.573-2.833-9.719-4.559c-1.287-0.707-2.478-1.534-3.527-2.562c-1.615-1.583,0.552-3.078,0.922-4.575
			c1.417-5.738-5.953-7.563-10.138-8.514c-8.817-2.004-17.698-3.27-26.635-1.15C279.648,65.25,280.646,68.866,282.998,68.308
			L282.998,68.308z"/>
	</g>
</g>
<g>
	<path fill="#95999D" d="M228.5,72.5c4.5-5.5,5-13,10.5-18c3.5-3,8.5-5,13.5-5c-2,10-19.5,13.5-23.5,23"/>
	<g>
		<path fill="#95999D" d="M230.119,73.446c2.832-3.751,4.287-8.15,6.333-12.333c3.066-6.265,9.241-9.47,16.048-9.738
			c-0.604-0.791-1.205-1.583-1.809-2.374c-1.448,5.74-7.449,8.833-12.064,11.81c-4.375,2.822-8.952,5.898-11.246,10.743
			c-1.029,2.173,2.204,4.077,3.238,1.893c4.938-10.426,20.688-11.56,23.688-23.448c0.289-1.143-0.563-2.422-1.808-2.374
			c-5.973,0.235-11.59,2.326-15.862,6.581c-4.753,4.735-5.762,12.055-9.757,17.348C225.423,73.485,228.682,75.351,230.119,73.446
			L230.119,73.446z"/>
	</g>
</g>
<g>
	<path fill="#95999D" d="M208,98c5.5-0.5,11-0.5,16.5-0.5c-2.5,0-4.5,1-6.5,1.5c-0.5,3,2,5,4,7c-4.5,0.5-10.5-3-14-6.5"/>
	<g>
		<path fill="#95999D" d="M208,98.625c5.492-0.462,10.992-0.499,16.5-0.5c0-0.417,0-0.833,0-1.25
			c-2.337,0.127-4.431,0.896-6.666,1.522c-0.281,0.079-0.441,0.321-0.459,0.603c-0.207,3.307,1.981,5.28,4.183,7.442
			c0.147-0.355,0.294-0.711,0.442-1.067c-5.135,0.286-9.99-2.902-13.558-6.317c-0.582-0.557-1.467,0.326-0.884,0.884
			c3.804,3.641,8.972,6.987,14.442,6.683c0.528-0.029,0.849-0.667,0.442-1.067c-1.493-1.466-3.046-2.825-3.767-4.861
			c-0.743-2.1,4.803-2.516,5.825-2.572c0.799-0.043,0.811-1.25,0-1.25c-5.508,0.001-11.008,0.038-16.5,0.5
			C207.203,97.442,207.196,98.692,208,98.625L208,98.625z"/>
	</g>
</g>
<g>
	<path d="M50.5,242c-8.5,0-8,4-3,9c2,2,7,9,9.5,9c-1-5-10-10.5-8-16"/>
	<g>
		<path d="M50.5,240.125c-5.781,0.135-10.876,3.024-6.955,9.094c1.63,2.523,4.049,4.715,6,7.004
			c1.737,2.036,4.092,5.176,6.957,5.586c1.367,0.195,2.713-0.795,2.307-2.307c-1.323-4.92-9.434-9.792-8-15.003
			c0.643-2.336-2.976-3.326-3.616-0.997c-1.997,7.26,6.347,10.85,8,16.997c0.769-0.769,1.538-1.537,2.307-2.306
			c-3.058-0.438-6.015-5.5-7.902-7.684c-1.26-1.458-2.62-2.714-3.556-4.427c-1.28-2.342,3.252-2.18,4.459-2.208
			C52.914,243.819,52.919,240.068,50.5,240.125L50.5,240.125z"/>
	</g>
</g>
<g>
	<path d="M121,314c3-1,7.5-4.5,9-7c1.5-3,1.5-8,6-3.5c-3.5,4.5-9,6.5-13.5,9.5"/>
	<g>
		<path d="M121.499,315.809c3.286-1.233,6.187-3.363,8.604-5.891c1.002-1.049,1.656-2.205,2.183-3.543
			c0.226-0.573,0.408-1.168,0.61-1.75c0.53-1.525,0.801-0.711,1.779,0.201c0-0.885,0-1.77,0-2.652
			c-3.51,4.246-8.599,6.278-13.121,9.207c-2.021,1.311-0.144,4.557,1.893,3.238c4.791-3.104,10.161-5.295,13.879-9.793
			c0.632-0.766,0.799-1.907,0-2.652c-2.626-2.447-5.946-3.48-7.653,0.462c-0.845,1.952-1.233,3.597-2.753,5.187
			c-1.75,1.83-4.037,3.477-6.418,4.371C118.259,313.034,119.23,316.66,121.499,315.809L121.499,315.809z"/>
	</g>
</g>
<g>
	<path fill="#CCCCCC" d="M224,210.5c-7-2-17.5,3.5-22.5,8c-6.5,5.5-9.5,16-14.5,23c5,0,15-10,18.5-13.5c6-5.5,11.5-17,20.5-17.5"/>
	<g>
		<path fill="#CCCCCC" d="M224.333,209.294c-8.149-1.805-16.604,2.662-22.833,7.564c-7.661,6.029-10.253,16.211-15.578,24.011
			c-0.513,0.751,0.158,1.959,1.079,1.881c6.816-0.579,13.043-7.649,17.619-12.114c6.203-6.053,12.019-17.84,21.381-18.886
			c1.583-0.177,1.601-2.679,0-2.5c-8.839,0.988-13.66,9.118-18.947,15.325c-2.489,2.922-5.448,5.562-8.28,8.145
			c-3.081,2.81-7.366,7.157-11.772,7.531c0.36,0.627,0.72,1.254,1.079,1.881c4.568-6.69,7.074-14.642,12.362-20.854
			c5.069-5.955,15.34-11.319,23.226-9.571C225.239,212.053,225.906,209.644,224.333,209.294L224.333,209.294z"/>
	</g>
</g>
<g>
	<g>
		<path fill="#6383C2" d="M196.333,140.206c6.536-1.335,11.498-6.273,16.051-10.822c1.142-1.14-0.626-2.908-1.768-1.768
			c-4.261,4.256-8.829,8.929-14.949,10.178C194.089,138.117,194.759,140.527,196.333,140.206L196.333,140.206z"/>
	</g>
</g>
<g>
	<path fill="#CCCCCC" d="M211.5,126.643c3.5-6.5,13-2.643,19-2.643c-12,6-21.5,17-36,15"/>
	<g>
		<path fill="#CCCCCC" d="M212.579,127.274c3.692-5.734,12.395-2.202,17.921-2.024c-0.21-0.776-0.42-1.553-0.631-2.329
			c-11.541,5.978-21.375,16.337-35.369,14.829c-1.602-0.173-1.585,2.329,0,2.5c14.517,1.564,24.645-8.962,36.631-15.171
			c1.152-0.597,0.553-2.291-0.631-2.329c-6.806-0.22-15.552-3.771-20.079,3.262C209.545,127.372,211.71,128.625,212.579,127.274
			L212.579,127.274z"/>
	</g>
</g>
<g>
	<path fill="#CCCCCC" d="M259.5,147c3.5-3,2-9.5,1-13.5c7,8.5,9,12.5,7,23.5c-1.5,9-5,18-7.5,27c-2.5,10-2.5,19-1.5,29
		c0.5,5.5,1.5,11,3,16c1.5,4,4.5,8.5,5.5,13c-12.5-8.5-18-34-17.5-48.5c0-8.5,2-18,4-26.5c1.5-7.5,6.5-14.5,8-22"/>
	<g>
		<path fill="#CCCCCC" d="M260.384,147.884c3.817-4.042,2.522-9.82,1.321-14.716c-0.696,0.406-1.393,0.811-2.089,1.216
			c5.846,7.174,8.253,12.956,6.679,22.284c-1.773,10.505-6.16,20.308-8.322,30.707c-2.002,9.623-1.492,19.598-0.314,29.287
			c0.521,4.294,1.449,8.516,2.638,12.671c1.293,4.523,4.265,8.4,5.5,13c0.611-0.471,1.224-0.941,1.836-1.412
			c-11.954-8.615-15.666-27.016-16.737-40.785c-0.724-9.297,0.692-18.53,2.627-27.6c1.063-4.984,2.322-9.669,4.365-14.351
			c1.844-4.23,3.768-8.335,4.818-12.853c0.365-1.569-2.045-2.235-2.41-0.665c-1.156,4.966-3.429,9.429-5.373,14.11
			c-2.229,5.37-3.395,10.968-4.553,16.649c-1.826,8.953-2.614,18.019-1.768,27.128c1.304,14.039,5.672,31.808,17.769,40.524
			c0.929,0.67,2.101-0.428,1.836-1.412c-1.003-3.737-2.758-7.098-4.442-10.563c-2.658-5.473-3.408-12.13-4.013-18.104
			c-1.183-11.704-0.394-22.792,3.052-34.068c2.885-9.442,6.506-19.06,6.684-29.049c0.121-6.84-3.987-12.219-8.102-17.267
			c-0.836-1.026-2.365,0.09-2.089,1.216c0.948,3.866,2.433,8.99-0.679,12.284C257.51,147.287,259.273,149.058,260.384,147.884
			L260.384,147.884z"/>
	</g>
</g>
<g>
	<path fill="#CCCCCC" d="M346.5,294c4.5-3,17,3.5,20.5,7.5c6,6.5,6,16,2.5,24c-4,9.5-11,17.5-17.5,25c-7.5,8.5-12.5,17-16,27.5
		c0-7,1-15.5,3.5-22.5c3.5-8,9.5-15,12.5-23c3-6.5,5-15,3.5-21.5c-1.5-8.5-6-12-12-17.5"/>
	<g>
		<path fill="#CCCCCC" d="M347.131,295.079c5.445-2.892,15.314,3.438,18.985,7.305c8.271,8.716,3.636,21.257-1.648,30.076
			c-4.955,8.271-12.023,14.854-17.755,22.524c-5.194,6.953-9.1,14.482-11.918,22.684c0.818,0.109,1.637,0.223,2.455,0.332
			c0.094-9.172,1.273-18.41,5.686-26.564c4.181-7.726,9.023-14.688,12.036-23.018c2.443-6.758,2.896-13.789,1.033-20.717
			c-1.722-6.409-6.924-10.803-11.621-15.085c-1.188-1.084-2.961,0.68-1.768,1.768c5.458,4.978,10.13,9.421,11.679,16.948
			c1.775,8.633-1.699,17.618-5.49,25.232c-3.404,6.84-8.563,12.824-11.022,20.125c-2.283,6.774-2.959,14.203-3.031,21.311
			c-0.015,1.465,2.009,1.631,2.455,0.332c4.1-11.926,10.818-21.262,18.954-30.744c7.22-8.415,14.718-17.885,16.662-29.089
			c1.367-7.877-1.546-15.633-7.891-20.437c-4.581-3.467-13.298-8.203-19.063-5.143C344.445,293.677,345.708,295.835,347.131,295.079
			L347.131,295.079z"/>
	</g>
</g>
<g>
	<path fill="#CCCCCC" d="M275.5,360c2,1,4.5,1.5,6.5,2.5c2.5,2.5,1,2,2,5.5c1,4,2,8,4,12c4,8.5,4.5,13.5,3,23
		c-0.5-10.5-27.5-33-16-43.5"/>
	<g>
		<path fill="#CCCCCC" d="M274.869,361.079c2.979,1.305,7.166,1.907,7.586,5.646c0.449,3.993,2.043,8.194,3.541,11.895
			c1.384,3.418,2.996,6.622,3.9,10.222c1.136,4.513,0.57,9.301-0.103,13.828c0.817,0.11,1.638,0.222,2.455,0.332
			c-0.655-7.078-6.621-13.521-10.481-19.119c-4.035-5.852-12.586-16.829-5.885-23.497c1.145-1.138-0.624-2.904-1.768-1.768
			c-5.885,5.852-2.264,13.895,1.271,20.003c2.589,4.47,5.712,8.623,8.623,12.882c2.288,3.348,5.354,7.327,5.739,11.499
			c0.12,1.297,2.232,1.824,2.455,0.332c0.615-4.133,1.189-8.369,0.563-12.539c-0.791-5.265-3.08-9.675-5.055-14.554
			c-1.629-4.023-1.688-8.571-3.191-12.5c-1.227-3.202-5.699-3.641-8.391-4.818C274.669,358.281,273.396,360.436,274.869,361.079
			L274.869,361.079z"/>
	</g>
</g>
<g>
	<path fill="#CCCCCC" d="M105,299.5c2,2,3,4,4.5,6.5c2-1,3.5-3,4.5-5c-3,1-6,0.5-9-1"/>
	<g>
		<path fill="#CCCCCC" d="M104.116,300.384c1.787,1.853,2.999,4.052,4.305,6.247c0.354,0.596,1.11,0.779,1.71,0.448
			c2.237-1.233,3.782-3.211,4.948-5.448c0.489-0.938-0.312-2.164-1.412-1.836c-2.811,0.837-5.423,0.369-8.037-0.874
			c-1.448-0.688-2.717,1.466-1.262,2.158c3.214,1.528,6.495,2.159,9.963,1.126c-0.471-0.611-0.941-1.225-1.412-1.836
			c-0.976,1.871-2.172,3.514-4.052,4.552c0.57,0.149,1.14,0.3,1.71,0.448c-1.416-2.381-2.758-4.746-4.695-6.753
			C104.763,297.454,102.997,299.225,104.116,300.384L104.116,300.384z"/>
	</g>
</g>
<g>
	<path fill="#CCCCCC" d="M144.143,263.305c5.291,1.148,9.406,6.323,15.285,5.174c5.879-1.149,9.994-7.475,12.346-12.074
		c-7.055,3.449-11.758,6.324-21.164,5.176c-4.703-0.575-9.406-3.45-14.109-5.75c2.939,4.023,7.055,6.898,11.758,8.624"/>
	<g>
		<path fill="#CCCCCC" d="M143.81,264.509c6.199,1.742,10.435,6.648,17.275,4.821c5.555-1.484,9.284-7.584,11.767-12.295
			c0.604-1.145-0.587-2.264-1.71-1.71c-4.616,2.274-9.068,4.569-14.25,5.165c-7.363,0.846-13.428-2.573-19.762-5.74
			c-1.333-0.667-2.375,0.863-1.515,1.963c3.284,4.203,7.372,6.989,12.309,8.945c1.5,0.595,2.145-1.824,0.665-2.41
			c-4.529-1.795-8.202-4.458-11.207-8.303c-0.505,0.654-1.01,1.309-1.515,1.963c6.498,3.25,12.16,6.188,19.582,6.166
			c6.129-0.018,11.606-2.955,16.954-5.592c-0.57-0.569-1.14-1.14-1.71-1.709c-2.711,5.143-6.388,10.904-12.701,11.615
			c-4.565,0.516-9.207-4.08-13.518-5.291C142.92,261.661,142.261,264.073,143.81,264.509L143.81,264.509z"/>
	</g>
</g>
<g>
	<path fill="#CCCCCC" d="M182.524,275.146c5.738-2.459,12.295-4.099,18.853-5.736c10.656,16.395,22.131,26.229,40.164,36.064
		c7.377,3.278,18.033,8.196,23.771,13.936c4.918,4.918,8.195,14.754,10.654,21.313c-13.934-13.936-35.246-21.313-53.278-27.869
		c-17.213-6.559-38.524-13.936-41.803-36.065"/>
	<g>
		<path fill="#CCCCCC" d="M182.857,276.354c5.534-2.273,11.273-3.824,17.064-5.289c1.838-0.467,7.185,8.438,8.576,10.123
			c6.137,7.433,13.575,13.604,21.578,18.922c8.49,5.642,17.945,9.222,26.671,14.414c10.415,6.195,13.968,15.653,18.016,26.531
			c0.696-0.406,1.393-0.812,2.09-1.217c-15.18-14.8-35.583-21.252-54.935-28.609c-17.284-6.572-36.396-14.326-39.826-34.772
			c-0.267-1.588-2.675-0.912-2.411,0.664c3.101,18.487,18.727,27.491,34.786,33.907c21,8.392,43.974,14.351,60.617,30.578
			c0.843,0.822,2.545,0.008,2.089-1.215c-2.701-7.263-5.184-14.849-10.125-20.947c-5.4-6.661-14.873-10.502-22.446-13.957
			c-17.328-7.909-31.723-20.879-42.145-36.707c-0.316-0.479-0.843-0.717-1.412-0.573c-6.388,1.599-12.749,3.229-18.853,5.737
			C180.722,274.546,181.365,276.966,182.857,276.354L182.857,276.354z"/>
	</g>
</g>
<g>
	<g>
		<path d="M218.656,140.7c19.931,20.786,0.197,50.336-16.307,66.261c-2.324,2.242,1.215,5.774,3.535,3.535
			c18.686-18.031,38.372-50.321,16.307-73.332C219.957,134.834,216.425,138.374,218.656,140.7L218.656,140.7z"/>
	</g>
</g>
</svg>
