<?xml version="1.0" standalone="no"?>
<!DOCTYPE svg PUBLIC "-//W3C//DTD SVG 20010904//EN"
 "http://www.w3.org/TR/2001/REC-SVG-20010904/DTD/svg10.dtd">
<svg version="1.0" xmlns="http://www.w3.org/2000/svg"
 width="200.000000pt" height="200.000000pt" viewBox="0 0 200.000000 200.000000"
 preserveAspectRatio="xMidYMid meet">

<g transform="translate(0.000000,200.000000) scale(0.100000,-0.100000)"
fill="#000000" stroke="none">
<path d="M1292 1638 c-6 -8 -11 -26 -10 -40 3 -39 -37 -95 -73 -100 -23 -4
-29 -1 -24 9 3 8 5 18 5 23 0 5 7 15 15 24 20 20 11 38 -26 55 -24 10 -36 11
-59 1 -31 -13 -41 -44 -17 -53 21 -7 3 -16 -74 -36 -41 -10 -91 -26 -111 -35
l-37 -16 -57 65 c-32 36 -66 65 -76 65 -11 0 -32 7 -49 15 -16 9 -44 16 -62
17 -37 1 -177 -33 -177 -43 0 -4 17 -13 38 -19 41 -14 82 -47 82 -67 0 -8 -13
-13 -35 -13 -19 0 -35 -4 -35 -8 0 -13 30 -37 75 -60 l40 -20 -47 -7 c-27 -4
-48 -10 -48 -14 0 -4 11 -18 25 -31 29 -27 21 -43 -31 -65 -38 -16 -62 -48
-69 -96 l-6 -34 21 38 c22 40 42 46 67 21 15 -14 14 -15 -2 -12 -10 2 -20 -3
-23 -11 -3 -9 1 -11 17 -6 14 4 21 2 21 -6 0 -7 8 -30 18 -50 20 -44 42 -49
72 -17 l21 23 20 -25 c20 -26 20 -33 -2 -88 -12 -28 -11 -37 1 -59 17 -31 70
-56 90 -43 21 13 -5 38 -34 33 -17 -4 -25 0 -28 15 -7 26 9 42 43 42 15 0 40
5 56 11 16 6 48 7 76 4 39 -6 48 -10 44 -24 -7 -22 -54 -152 -62 -173 -6 -15
-1 -18 30 -18 l37 0 -6 48 c-6 47 -6 48 53 112 62 68 85 75 57 16 -9 -19 -16
-39 -16 -45 0 -7 -11 -33 -25 -59 -14 -26 -25 -53 -25 -59 0 -7 11 -13 25 -13
16 0 25 6 25 15 0 9 10 35 22 58 l22 42 7 -35 c4 -19 5 -45 2 -57 l-5 -23 218
1 c157 1 208 4 180 10 -22 5 -45 14 -51 19 -6 5 -21 7 -34 3 -19 -5 -21 -3
-16 20 9 33 -13 47 -34 21 -17 -21 -44 -20 -76 2 -27 19 -39 18 -73 -11 -40
-33 -58 -32 -66 6 -13 65 -7 94 22 116 l28 21 38 -29 c21 -15 44 -36 50 -45 8
-10 20 -15 30 -11 22 9 20 24 -3 32 -11 3 -36 25 -56 48 -20 23 -42 49 -50 58
-13 14 -10 18 36 39 73 34 146 30 212 -12 27 -17 55 -42 64 -55 17 -26 35 -29
52 -9 10 12 8 16 -11 21 -31 10 -84 61 -98 95 -6 15 -22 32 -35 38 -13 6 -36
29 -51 51 -35 54 -110 104 -146 98 -16 -2 -28 0 -28 5 0 4 5 8 11 8 7 0 9 9 6
21 -9 35 9 64 50 83 33 15 42 25 57 69 20 60 19 140 -2 115z m-256 -168 c10 0
29 -67 27 -97 0 -7 3 -13 8 -13 5 0 9 -4 9 -10 0 -5 -6 -10 -14 -10 -18 0
-136 87 -136 100 0 15 53 40 75 35 11 -3 25 -5 31 -5z m-144 -130 c43 -17 98
-33 123 -37 60 -8 49 -19 -27 -27 -51 -6 -59 -9 -44 -18 28 -16 138 -1 198 27
89 41 89 41 208 -92 l36 -39 -65 8 c-36 4 -86 19 -114 33 -54 29 -64 28 -47
-4 10 -19 8 -21 -19 -21 -24 0 -36 -9 -61 -45 -17 -24 -44 -52 -60 -62 -17 -9
-30 -24 -30 -33 0 -8 -11 -26 -25 -38 l-25 -24 15 42 c17 49 19 80 5 80 -6 0
-16 -12 -22 -26 -11 -23 -16 -25 -47 -19 -49 9 -88 31 -107 60 -25 38 -37 31
-32 -17 5 -39 3 -43 -17 -44 -21 -2 -21 0 -9 25 19 39 28 101 15 101 -6 0 -11
-8 -11 -17 0 -10 -4 -24 -9 -32 -6 -9 -7 8 -4 46 6 67 -3 121 -17 107 -5 -5
-10 -34 -12 -64 -2 -40 -7 -54 -17 -52 -23 5 -51 -9 -51 -25 0 -24 -25 -9 -28
18 -2 13 -11 32 -20 42 -13 15 -14 22 -4 37 7 11 12 30 12 43 0 35 29 55 106
76 97 26 119 25 206 -9z m-337 -89 c-3 -6 -19 -11 -34 -11 -15 0 -33 -6 -40
-12 -10 -11 -11 -10 -6 4 4 9 23 20 43 26 41 10 47 8 37 -7z"/>
<path d="M677 663 c-4 -3 -7 -17 -7 -30 0 -16 6 -23 20 -23 11 0 20 5 20 10 0
6 9 10 20 10 18 0 16 -6 -20 -53 -22 -30 -40 -59 -40 -65 0 -8 24 -12 70 -12
l70 0 0 30 c0 32 -9 37 -40 18 -34 -22 -33 0 4 48 51 67 48 74 -27 74 -35 0
-67 -3 -70 -7z"/>
<path d="M882 663 c-23 -9 -44 -64 -38 -96 9 -46 33 -67 77 -67 29 0 42 6 58
26 57 73 -13 171 -97 137z m66 -74 c4 -43 -19 -69 -43 -49 -15 13 -21 71 -8
84 4 4 16 6 28 4 15 -2 21 -12 23 -39z"/>
<path d="M1030 655 c0 -8 5 -15 10 -15 6 0 10 -25 10 -55 0 -30 -4 -55 -10
-55 -5 0 -10 -7 -10 -15 0 -11 12 -15 45 -15 33 0 45 4 45 15 0 8 -4 15 -10
15 -5 0 -10 20 -10 45 0 39 3 45 25 51 16 4 25 13 25 25 0 21 -20 25 -38 7 -9
-9 -12 -9 -12 0 0 7 -14 12 -35 12 -24 0 -35 -5 -35 -15z"/>
<path d="M1200 652 c-32 -26 -38 -90 -10 -124 17 -22 30 -28 60 -28 53 0 84
38 77 95 -7 46 -36 75 -77 75 -15 0 -38 -8 -50 -18z m78 -63 c4 -43 -19 -69
-43 -49 -15 13 -21 71 -8 84 4 4 16 6 28 4 15 -2 21 -12 23 -39z"/>
</g>
</svg>
